<svg version="1.1" viewBox="0.0 0.0 600.0 371.0" fill="none" stroke="none" stroke-linecap="square" stroke-miterlimit="10" width="600" height="371" xmlns:xlink="http://www.w3.org/1999/xlink" xmlns="http://www.w3.org/2000/svg"><path fill="#ffffff" d="M0 0L600.0 0L600.0 371.0L0 371.0L0 0Z" fill-rule="nonzero"/><path stroke="#333333" stroke-width="1.0" stroke-linecap="butt" d="M84.5 54.5L84.5 300.5" fill-rule="nonzero"/><path stroke="#cccccc" stroke-width="1.0" stroke-linecap="butt" d="M208.5 54.5L208.5 300.5" fill-rule="nonzero"/><path stroke="#cccccc" stroke-width="1.0" stroke-linecap="butt" d="M333.5 54.5L333.5 300.5" fill-rule="nonzero"/><path stroke="#cccccc" stroke-width="1.0" stroke-linecap="butt" d="M457.5 54.5L457.5 300.5" fill-rule="nonzero"/><path stroke="#cccccc" stroke-width="1.0" stroke-linecap="butt" d="M581.5 54.5L581.5 300.5" fill-rule="nonzero"/><clipPath id="id_0"><path d="M84.55 54.916668L581.45 54.916668L581.45 300.45L84.55 300.45L84.55 54.916668Z" clip-rule="nonzero"/></clipPath><path stroke="#000000" stroke-width="0.0" stroke-linecap="butt" stroke-opacity="0.0" clip-path="url(#id_0)" d="M85.0 82.0L85.0 65.0L157.0 65.0C158.10457 65.0 159.0 65.89543 159.0 67.0L159.0 80.0C159.0 81.10457 158.10457 82.0 157.0 82.0Z" fill-rule="nonzero"/><path fill="#4285f4" clip-path="url(#id_0)" d="M85.0 82.0L85.0 65.0L157.0 65.0C158.10457 65.0 159.0 65.89543 159.0 67.0L159.0 80.0C159.0 81.10457 158.10457 82.0 157.0 82.0Z" fill-rule="nonzero"/><path stroke="#000000" stroke-width="0.0" stroke-linecap="butt" stroke-opacity="0.0" clip-path="url(#id_0)" d="M85.0 108.0L85.0 91.0L567.0 91.0C568.10455 91.0 569.0 91.89543 569.0 93.0L569.0 106.0C569.0 107.10457 568.10455 108.0 567.0 108.0Z" fill-rule="nonzero"/><path fill="#4285f4" clip-path="url(#id_0)" d="M85.0 108.0L85.0 91.0L567.0 91.0C568.10455 91.0 569.0 91.89543 569.0 93.0L569.0 106.0C569.0 107.10457 568.10455 108.0 567.0 108.0Z" fill-rule="nonzero"/><path stroke="#000000" stroke-width="0.0" stroke-linecap="butt" stroke-opacity="0.0" clip-path="url(#id_0)" d="M85.0 134.0L85.0 117.0L468.0 117.0C469.10458 117.0 470.0 117.89543 470.0 119.0L470.0 132.0C470.0 133.10457 469.10458 134.0 468.0 134.0Z" fill-rule="nonzero"/><path fill="#4285f4" clip-path="url(#id_0)" d="M85.0 134.0L85.0 117.0L468.0 117.0C469.10458 117.0 470.0 117.89543 470.0 119.0L470.0 132.0C470.0 133.10457 469.10458 134.0 468.0 134.0Z" fill-rule="nonzero"/><path stroke="#000000" stroke-width="0.0" stroke-linecap="butt" stroke-opacity="0.0" clip-path="url(#id_0)" d="M85.0 160.0L85.0 143.0L393.0 143.0C394.10458 143.0 395.0 143.89543 395.0 145.0L395.0 158.0C395.0 159.10457 394.10458 160.0 393.0 160.0Z" fill-rule="nonzero"/><path fill="#4285f4" clip-path="url(#id_0)" d="M85.0 160.0L85.0 143.0L393.0 143.0C394.10458 143.0 395.0 143.89543 395.0 145.0L395.0 158.0C395.0 159.10457 394.10458 160.0 393.0 160.0Z" fill-rule="nonzero"/><path stroke="#000000" stroke-width="0.0" stroke-linecap="butt" stroke-opacity="0.0" clip-path="url(#id_0)" d="M85.0 187.0L85.0 170.0L157.0 170.0C158.10457 170.0 159.0 170.89543 159.0 172.0L159.0 185.0C159.0 186.10457 158.10457 187.0 157.0 187.0Z" fill-rule="nonzero"/><path fill="#4285f4" clip-path="url(#id_0)" d="M85.0 187.0L85.0 170.0L157.0 170.0C158.10457 170.0 159.0 170.89543 159.0 172.0L159.0 185.0C159.0 186.10457 158.10457 187.0 157.0 187.0Z" fill-rule="nonzero"/><path stroke="#000000" stroke-width="0.0" stroke-linecap="butt" stroke-opacity="0.0" clip-path="url(#id_0)" d="M85.0 213.0L85.0 196.0L157.0 196.0C158.10457 196.0 159.0 196.89543 159.0 198.0L159.0 211.0C159.0 212.10457 158.10457 213.0 157.0 213.0Z" fill-rule="nonzero"/><path fill="#4285f4" clip-path="url(#id_0)" d="M85.0 213.0L85.0 196.0L157.0 196.0C158.10457 196.0 159.0 196.89543 159.0 198.0L159.0 211.0C159.0 212.10457 158.10457 213.0 157.0 213.0Z" fill-rule="nonzero"/><path stroke="#000000" stroke-width="0.0" stroke-linecap="butt" stroke-opacity="0.0" clip-path="url(#id_0)" d="M85.0 239.0L85.0 222.0L132.0 222.0C133.10457 222.0 134.0 222.89543 134.0 224.0L134.0 237.0C134.0 238.10457 133.10457 239.0 132.0 239.0Z" fill-rule="nonzero"/><path fill="#4285f4" clip-path="url(#id_0)" d="M85.0 239.0L85.0 222.0L132.0 222.0C133.10457 222.0 134.0 222.89543 134.0 224.0L134.0 237.0C134.0 238.10457 133.10457 239.0 132.0 239.0Z" fill-rule="nonzero"/><path stroke="#000000" stroke-width="0.0" stroke-linecap="butt" stroke-opacity="0.0" clip-path="url(#id_0)" d="M85.0 265.0L85.0 248.0L95.0 248.0C96.10457 248.0 97.0 248.89543 97.0 250.0L97.0 263.0C97.0 264.10458 96.10457 265.0 95.0 265.0Z" fill-rule="nonzero"/><path fill="#4285f4" clip-path="url(#id_0)" d="M85.0 265.0L85.0 248.0L95.0 248.0C96.10457 248.0 97.0 248.89543 97.0 250.0L97.0 263.0C97.0 264.10458 96.10457 265.0 95.0 265.0Z" fill-rule="nonzero"/><path stroke="#000000" stroke-width="0.0" stroke-linecap="butt" stroke-opacity="0.0" clip-path="url(#id_0)" d="M85.0 292.0L85.0 275.0L107.0 275.0C108.10457 275.0 109.0 275.89542 109.0 277.0L109.0 290.0C109.0 291.10458 108.10457 292.0 107.0 292.0Z" fill-rule="nonzero"/><path fill="#4285f4" clip-path="url(#id_0)" d="M85.0 292.0L85.0 275.0L107.0 275.0C108.10457 275.0 109.0 275.89542 109.0 277.0L109.0 290.0C109.0 291.10458 108.10457 292.0 107.0 292.0Z" fill-rule="nonzero"/><path stroke="#ffffff" stroke-width="3.0" stroke-linejoin="round" stroke-linecap="round" d="M176.05376 68.96875L176.05376 69.875L175.85063 69.875Q174.585 69.90625 173.835 70.640625Q173.085 71.359375 172.96 72.671875Q173.6475 71.90625 174.80376 71.90625Q175.91313 71.90625 176.585 72.6875Q177.25688 73.46875 177.25688 74.71875Q177.25688 76.03125 176.53813 76.828125Q175.81938 77.625 174.60063 77.625Q173.38188 77.625 172.61626 76.6875Q171.86626 75.734375 171.86626 74.25L171.86626 73.84375Q171.86626 71.484375 172.86626 70.234375Q173.86626 68.984375 175.85063 68.96875L176.05376 68.96875ZM174.63188 72.8125Q174.06938 72.8125 173.60063 73.140625Q173.13188 73.46875 172.94438 73.984375L172.94438 74.375Q172.94438 75.4375 173.41313 76.078125Q173.8975 76.71875 174.60063 76.71875Q175.335 76.71875 175.75688 76.1875Q176.17876 75.640625 176.17876 74.765625Q176.17876 73.890625 175.75688 73.359375Q175.335 72.8125 174.63188 72.8125Z" fill-rule="nonzero"/><path fill="#4285f4" d="M176.05376 68.96875L176.05376 69.875L175.85063 69.875Q174.585 69.90625 173.835 70.640625Q173.085 71.359375 172.96 72.671875Q173.6475 71.90625 174.80376 71.90625Q175.91313 71.90625 176.585 72.6875Q177.25688 73.46875 177.25688 74.71875Q177.25688 76.03125 176.53813 76.828125Q175.81938 77.625 174.60063 77.625Q173.38188 77.625 172.61626 76.6875Q171.86626 75.734375 171.86626 74.25L171.86626 73.84375Q171.86626 71.484375 172.86626 70.234375Q173.86626 68.984375 175.85063 68.96875L176.05376 68.96875ZM174.63188 72.8125Q174.06938 72.8125 173.60063 73.140625Q173.13188 73.46875 172.94438 73.984375L172.94438 74.375Q172.94438 75.4375 173.41313 76.078125Q173.8975 76.71875 174.60063 76.71875Q175.335 76.71875 175.75688 76.1875Q176.17876 75.640625 176.17876 74.765625Q176.17876 73.890625 175.75688 73.359375Q175.335 72.8125 174.63188 72.8125Z" fill-rule="nonzero"/><path stroke="#ffffff" stroke-width="3.0" stroke-linejoin="round" stroke-linecap="round" d="M583.3088 98.703125L584.1213 98.703125Q584.9025 98.6875 585.34 98.296875Q585.7775 97.90625 585.7775 97.234375Q585.7775 95.734375 584.2775 95.734375Q583.5744 95.734375 583.1525 96.140625Q582.7463 96.546875 582.7463 97.203125L581.6525 97.203125Q581.6525 96.1875 582.3869 95.515625Q583.1369 94.84375 584.2775 94.84375Q585.48065 94.84375 586.16815 95.484375Q586.85565 96.125 586.85565 97.265625Q586.85565 97.828125 586.4963 98.34375Q586.1369 98.859375 585.5119 99.125Q586.215 99.34375 586.59 99.859375Q586.98065 100.375 586.98065 101.125Q586.98065 102.265625 586.23065 102.953125Q585.48065 103.625 584.2775 103.625Q583.09 103.625 582.3244 102.96875Q581.5744 102.3125 581.5744 101.25L582.66815 101.25Q582.66815 101.921875 583.10565 102.328125Q583.54315 102.734375 584.29315 102.734375Q585.0744 102.734375 585.48065 102.328125Q585.9025 101.90625 585.9025 101.140625Q585.9025 100.40625 585.4494 100.015625Q584.9963 99.609375 584.1213 99.59375L583.3088 99.59375L583.3088 98.703125ZM592.8869 99.75Q592.5588 100.15625 592.0744 100.40625Q591.60565 100.640625 591.04315 100.640625Q590.3088 100.640625 589.7619 100.28125Q589.215 99.921875 588.91815 99.265625Q588.6213 98.59375 588.6213 97.796875Q588.6213 96.953125 588.9338 96.265625Q589.2619 95.578125 589.85565 95.21875Q590.465 94.84375 591.2619 94.84375Q592.5275 94.84375 593.2463 95.796875Q593.98065 96.75 593.98065 98.375L593.98065 98.6875Q593.98065 101.1875 592.9963 102.328125Q592.0119 103.46875 590.0275 103.5L589.8088 103.5L589.8088 102.59375L590.04315 102.59375Q591.3869 102.5625 592.10565 101.890625Q592.8244 101.21875 592.8869 99.75ZM591.215 99.75Q591.7619 99.75 592.215 99.421875Q592.6838 99.078125 592.9025 98.59375L592.9025 98.15625Q592.9025 97.09375 592.4338 96.421875Q591.965 95.75 591.2619 95.75Q590.54315 95.75 590.10565 96.296875Q589.6838 96.84375 589.6838 97.75Q589.6838 98.625 590.09 99.1875Q590.5119 99.75 591.215 99.75Z" fill-rule="nonzero"/><path fill="#4285f4" d="M583.3088 98.703125L584.1213 98.703125Q584.9025 98.6875 585.34 98.296875Q585.7775 97.90625 585.7775 97.234375Q585.7775 95.734375 584.2775 95.734375Q583.5744 95.734375 583.1525 96.140625Q582.7463 96.546875 582.7463 97.203125L581.6525 97.203125Q581.6525 96.1875 582.3869 95.515625Q583.1369 94.84375 584.2775 94.84375Q585.48065 94.84375 586.16815 95.484375Q586.85565 96.125 586.85565 97.265625Q586.85565 97.828125 586.4963 98.34375Q586.1369 98.859375 585.5119 99.125Q586.215 99.34375 586.59 99.859375Q586.98065 100.375 586.98065 101.125Q586.98065 102.265625 586.23065 102.953125Q585.48065 103.625 584.2775 103.625Q583.09 103.625 582.3244 102.96875Q581.5744 102.3125 581.5744 101.25L582.66815 101.25Q582.66815 101.921875 583.10565 102.328125Q583.54315 102.734375 584.29315 102.734375Q585.0744 102.734375 585.48065 102.328125Q585.9025 101.90625 585.9025 101.140625Q585.9025 100.40625 585.4494 100.015625Q584.9963 99.609375 584.1213 99.59375L583.3088 99.59375L583.3088 98.703125ZM592.8869 99.75Q592.5588 100.15625 592.0744 100.40625Q591.60565 100.640625 591.04315 100.640625Q590.3088 100.640625 589.7619 100.28125Q589.215 99.921875 588.91815 99.265625Q588.6213 98.59375 588.6213 97.796875Q588.6213 96.953125 588.9338 96.265625Q589.2619 95.578125 589.85565 95.21875Q590.465 94.84375 591.2619 94.84375Q592.5275 94.84375 593.2463 95.796875Q593.98065 96.75 593.98065 98.375L593.98065 98.6875Q593.98065 101.1875 592.9963 102.328125Q592.0119 103.46875 590.0275 103.5L589.8088 103.5L589.8088 102.59375L590.04315 102.59375Q591.3869 102.5625 592.10565 101.890625Q592.8244 101.21875 592.8869 99.75ZM591.215 99.75Q591.7619 99.75 592.215 99.421875Q592.6838 99.078125 592.9025 98.59375L592.9025 98.15625Q592.9025 97.09375 592.4338 96.421875Q591.965 95.75 591.2619 95.75Q590.54315 95.75 590.10565 96.296875Q589.6838 96.84375 589.6838 97.75Q589.6838 98.625 590.09 99.1875Q590.5119 99.75 591.215 99.75Z" fill-rule="nonzero"/><path stroke="#ffffff" stroke-width="3.0" stroke-linejoin="round" stroke-linecap="round" d="M483.92874 124.703125L484.74124 124.703125Q485.5225 124.6875 485.96 124.296875Q486.3975 123.90625 486.3975 123.234375Q486.3975 121.734375 484.8975 121.734375Q484.19437 121.734375 483.7725 122.140625Q483.36624 122.546875 483.36624 123.203125L482.2725 123.203125Q482.2725 122.1875 483.00687 121.515625Q483.75687 120.84375 484.8975 120.84375Q486.10062 120.84375 486.78812 121.484375Q487.47562 122.125 487.47562 123.265625Q487.47562 123.828125 487.11624 124.34375Q486.75687 124.859375 486.13187 125.125Q486.835 125.34375 487.21 125.859375Q487.60062 126.375 487.60062 127.125Q487.60062 128.26562 486.85062 128.95312Q486.10062 129.625 484.8975 129.625Q483.71 129.625 482.94437 128.96875Q482.19437 128.3125 482.19437 127.25L483.28812 127.25Q483.28812 127.921875 483.72562 128.32812Q484.16312 128.73438 484.91312 128.73438Q485.69437 128.73438 486.10062 128.32812Q486.5225 127.90625 486.5225 127.140625Q486.5225 126.40625 486.06937 126.015625Q485.61624 125.609375 484.74124 125.59375L483.92874 125.59375L483.92874 124.703125ZM492.91312 129.5L491.835 129.5L491.835 122.28125L489.6475 123.078125L489.6475 122.09375L492.75687 120.921875L492.91312 120.921875L492.91312 129.5Z" fill-rule="nonzero"/><path fill="#4285f4" d="M483.92874 124.703125L484.74124 124.703125Q485.5225 124.6875 485.96 124.296875Q486.3975 123.90625 486.3975 123.234375Q486.3975 121.734375 484.8975 121.734375Q484.19437 121.734375 483.7725 122.140625Q483.36624 122.546875 483.36624 123.203125L482.2725 123.203125Q482.2725 122.1875 483.00687 121.515625Q483.75687 120.84375 484.8975 120.84375Q486.10062 120.84375 486.78812 121.484375Q487.47562 122.125 487.47562 123.265625Q487.47562 123.828125 487.11624 124.34375Q486.75687 124.859375 486.13187 125.125Q486.835 125.34375 487.21 125.859375Q487.60062 126.375 487.60062 127.125Q487.60062 128.26562 486.85062 128.95312Q486.10062 129.625 484.8975 129.625Q483.71 129.625 482.94437 128.96875Q482.19437 128.3125 482.19437 127.25L483.28812 127.25Q483.28812 127.921875 483.72562 128.32812Q484.16312 128.73438 484.91312 128.73438Q485.69437 128.73438 486.10062 128.32812Q486.5225 127.90625 486.5225 127.140625Q486.5225 126.40625 486.06937 126.015625Q485.61624 125.609375 484.74124 125.59375L483.92874 125.59375L483.92874 124.703125ZM492.91312 129.5L491.835 129.5L491.835 122.28125L489.6475 123.078125L489.6475 122.09375L492.75687 120.921875L492.91312 120.921875L492.91312 129.5Z" fill-rule="nonzero"/><path stroke="#ffffff" stroke-width="3.0" stroke-linejoin="round" stroke-linecap="round" d="M413.40936 155.5L407.8156 155.5L407.8156 154.71875L410.76874 151.4375Q411.425 150.6875 411.675 150.23438Q411.925 149.76562 411.925 149.26562Q411.925 148.59375 411.51874 148.17188Q411.1281 147.73438 410.4406 147.73438Q409.64374 147.73438 409.1906 148.20312Q408.7375 148.65625 408.7375 149.48438L407.65936 149.48438Q407.65936 148.29688 408.40936 147.57812Q409.175 146.84375 410.4406 146.84375Q411.64374 146.84375 412.33124 147.46875Q413.01874 148.09375 413.01874 149.14062Q413.01874 150.39062 411.40936 152.14062L409.1281 154.60938L413.40936 154.60938L413.40936 155.5ZM415.3156 151.21875L415.7531 146.96875L420.1281 146.96875L420.1281 147.96875L416.675 147.96875L416.40936 150.29688Q417.05 149.92188 417.84686 149.92188Q419.0031 149.92188 419.6906 150.70312Q420.3781 151.46875 420.3781 152.78125Q420.3781 154.09375 419.65936 154.85938Q418.95624 155.625 417.675 155.625Q416.55 155.625 415.83124 155.0Q415.1125 154.35938 415.01874 153.25L416.03436 153.25Q416.14374 153.98438 416.5656 154.35938Q416.9875 154.73438 417.675 154.73438Q418.425 154.73438 418.8625 154.21875Q419.3 153.70312 419.3 152.79688Q419.3 151.9375 418.83124 151.42188Q418.3625 150.90625 417.58124 150.90625Q416.8781 150.90625 416.47186 151.20312L416.1906 151.4375L415.3156 151.21875Z" fill-rule="nonzero"/><path fill="#4285f4" d="M413.40936 155.5L407.8156 155.5L407.8156 154.71875L410.76874 151.4375Q411.425 150.6875 411.675 150.23438Q411.925 149.76562 411.925 149.26562Q411.925 148.59375 411.51874 148.17188Q411.1281 147.73438 410.4406 147.73438Q409.64374 147.73438 409.1906 148.20312Q408.7375 148.65625 408.7375 149.48438L407.65936 149.48438Q407.65936 148.29688 408.40936 147.57812Q409.175 146.84375 410.4406 146.84375Q411.64374 146.84375 412.33124 147.46875Q413.01874 148.09375 413.01874 149.14062Q413.01874 150.39062 411.40936 152.14062L409.1281 154.60938L413.40936 154.60938L413.40936 155.5ZM415.3156 151.21875L415.7531 146.96875L420.1281 146.96875L420.1281 147.96875L416.675 147.96875L416.40936 150.29688Q417.05 149.92188 417.84686 149.92188Q419.0031 149.92188 419.6906 150.70312Q420.3781 151.46875 420.3781 152.78125Q420.3781 154.09375 419.65936 154.85938Q418.95624 155.625 417.675 155.625Q416.55 155.625 415.83124 155.0Q415.1125 154.35938 415.01874 153.25L416.03436 153.25Q416.14374 153.98438 416.5656 154.35938Q416.9875 154.73438 417.675 154.73438Q418.425 154.73438 418.8625 154.21875Q419.3 153.70312 419.3 152.79688Q419.3 151.9375 418.83124 151.42188Q418.3625 150.90625 417.58124 150.90625Q416.8781 150.90625 416.47186 151.20312L416.1906 151.4375L415.3156 151.21875Z" fill-rule="nonzero"/><path stroke="#ffffff" stroke-width="3.0" stroke-linejoin="round" stroke-linecap="round" d="M176.05376 173.96875L176.05376 174.875L175.85063 174.875Q174.585 174.90625 173.835 175.64062Q173.085 176.35938 172.96 177.67188Q173.6475 176.90625 174.80376 176.90625Q175.91313 176.90625 176.585 177.6875Q177.25688 178.46875 177.25688 179.71875Q177.25688 181.03125 176.53813 181.82812Q175.81938 182.625 174.60063 182.625Q173.38188 182.625 172.61626 181.6875Q171.86626 180.73438 171.86626 179.25L171.86626 178.84375Q171.86626 176.48438 172.86626 175.23438Q173.86626 173.98438 175.85063 173.96875L176.05376 173.96875ZM174.63188 177.8125Q174.06938 177.8125 173.60063 178.14062Q173.13188 178.46875 172.94438 178.98438L172.94438 179.375Q172.94438 180.4375 173.41313 181.07812Q173.8975 181.71875 174.60063 181.71875Q175.335 181.71875 175.75688 181.1875Q176.17876 180.64062 176.17876 179.76562Q176.17876 178.89062 175.75688 178.35938Q175.335 177.8125 174.63188 177.8125Z" fill-rule="nonzero"/><path fill="#4285f4" d="M176.05376 173.96875L176.05376 174.875L175.85063 174.875Q174.585 174.90625 173.835 175.64062Q173.085 176.35938 172.96 177.67188Q173.6475 176.90625 174.80376 176.90625Q175.91313 176.90625 176.585 177.6875Q177.25688 178.46875 177.25688 179.71875Q177.25688 181.03125 176.53813 181.82812Q175.81938 182.625 174.60063 182.625Q173.38188 182.625 172.61626 181.6875Q171.86626 180.73438 171.86626 179.25L171.86626 178.84375Q171.86626 176.48438 172.86626 175.23438Q173.86626 173.98438 175.85063 173.96875L176.05376 173.96875ZM174.63188 177.8125Q174.06938 177.8125 173.60063 178.14062Q173.13188 178.46875 172.94438 178.98438L172.94438 179.375Q172.94438 180.4375 173.41313 181.07812Q173.8975 181.71875 174.60063 181.71875Q175.335 181.71875 175.75688 181.1875Q176.17876 180.64062 176.17876 179.76562Q176.17876 178.89062 175.75688 178.35938Q175.335 177.8125 174.63188 177.8125Z" fill-rule="nonzero"/><path stroke="#ffffff" stroke-width="3.0" stroke-linejoin="round" stroke-linecap="round" d="M176.05376 199.96875L176.05376 200.875L175.85063 200.875Q174.585 200.90625 173.835 201.64062Q173.085 202.35938 172.96 203.67188Q173.6475 202.90625 174.80376 202.90625Q175.91313 202.90625 176.585 203.6875Q177.25688 204.46875 177.25688 205.71875Q177.25688 207.03125 176.53813 207.82812Q175.81938 208.625 174.60063 208.625Q173.38188 208.625 172.61626 207.6875Q171.86626 206.73438 171.86626 205.25L171.86626 204.84375Q171.86626 202.48438 172.86626 201.23438Q173.86626 199.98438 175.85063 199.96875L176.05376 199.96875ZM174.63188 203.8125Q174.06938 203.8125 173.60063 204.14062Q173.13188 204.46875 172.94438 204.98438L172.94438 205.375Q172.94438 206.4375 173.41313 207.07812Q173.8975 207.71875 174.60063 207.71875Q175.335 207.71875 175.75688 207.1875Q176.17876 206.64062 176.17876 205.76562Q176.17876 204.89062 175.75688 204.35938Q175.335 203.8125 174.63188 203.8125Z" fill-rule="nonzero"/><path fill="#4285f4" d="M176.05376 199.96875L176.05376 200.875L175.85063 200.875Q174.585 200.90625 173.835 201.64062Q173.085 202.35938 172.96 203.67188Q173.6475 202.90625 174.80376 202.90625Q175.91313 202.90625 176.585 203.6875Q177.25688 204.46875 177.25688 205.71875Q177.25688 207.03125 176.53813 207.82812Q175.81938 208.625 174.60063 208.625Q173.38188 208.625 172.61626 207.6875Q171.86626 206.73438 171.86626 205.25L171.86626 204.84375Q171.86626 202.48438 172.86626 201.23438Q173.86626 199.98438 175.85063 199.96875L176.05376 199.96875ZM174.63188 203.8125Q174.06938 203.8125 173.60063 204.14062Q173.13188 204.46875 172.94438 204.98438L172.94438 205.375Q172.94438 206.4375 173.41313 207.07812Q173.8975 207.71875 174.60063 207.71875Q175.335 207.71875 175.75688 207.1875Q176.17876 206.64062 176.17876 205.76562Q176.17876 204.89062 175.75688 204.35938Q175.335 203.8125 174.63188 203.8125Z" fill-rule="nonzero"/><path stroke="#ffffff" stroke-width="3.0" stroke-linejoin="round" stroke-linecap="round" d="M151.52126 231.64062L152.70876 231.64062L152.70876 232.51562L151.52126 232.51562L151.52126 234.5L150.44313 234.5L150.44313 232.51562L146.5525 232.51562L146.5525 231.875L150.365 225.96875L151.52126 225.96875L151.52126 231.64062ZM147.78688 231.64062L150.44313 231.64062L150.44313 227.45312L150.3025 227.6875L147.78688 231.64062Z" fill-rule="nonzero"/><path fill="#4285f4" d="M151.52126 231.64062L152.70876 231.64062L152.70876 232.51562L151.52126 232.51562L151.52126 234.5L150.44313 234.5L150.44313 232.51562L146.5525 232.51562L146.5525 231.875L150.365 225.96875L151.52126 225.96875L151.52126 231.64062ZM147.78688 231.64062L150.44313 231.64062L150.44313 227.45312L150.3025 227.6875L147.78688 231.64062Z" fill-rule="nonzero"/><path stroke="#ffffff" stroke-width="3.0" stroke-linejoin="round" stroke-linecap="round" d="M113.23813 260.5L112.16 260.5L112.16 253.28125L109.9725 254.07812L109.9725 253.09375L113.08188 251.92188L113.23813 251.92188L113.23813 260.5Z" fill-rule="nonzero"/><path fill="#4285f4" d="M113.23813 260.5L112.16 260.5L112.16 253.28125L109.9725 254.07812L109.9725 253.09375L113.08188 251.92188L113.23813 251.92188L113.23813 260.5Z" fill-rule="nonzero"/><path stroke="#ffffff" stroke-width="3.0" stroke-linejoin="round" stroke-linecap="round" d="M127.69187 287.5L122.09812 287.5L122.09812 286.71875L125.05125 283.4375Q125.7075 282.6875 125.9575 282.23438Q126.2075 281.76562 126.2075 281.26562Q126.2075 280.59375 125.80125 280.17188Q125.41062 279.73438 124.72312 279.73438Q123.92625 279.73438 123.47312 280.20312Q123.02 280.65625 123.02 281.48438L121.94187 281.48438Q121.94187 280.29688 122.69187 279.57812Q123.4575 278.84375 124.72312 278.84375Q125.92625 278.84375 126.61375 279.46875Q127.30125 280.09375 127.30125 281.14062Q127.30125 282.39062 125.69187 284.14062L123.41062 286.60938L127.69187 286.60938L127.69187 287.5Z" fill-rule="nonzero"/><path fill="#4285f4" d="M127.69187 287.5L122.09812 287.5L122.09812 286.71875L125.05125 283.4375Q125.7075 282.6875 125.9575 282.23438Q126.2075 281.76562 126.2075 281.26562Q126.2075 280.59375 125.80125 280.17188Q125.41062 279.73438 124.72312 279.73438Q123.92625 279.73438 123.47312 280.20312Q123.02 280.65625 123.02 281.48438L121.94187 281.48438Q121.94187 280.29688 122.69187 279.57812Q123.4575 278.84375 124.72312 278.84375Q125.92625 278.84375 126.61375 279.46875Q127.30125 280.09375 127.30125 281.14062Q127.30125 282.39062 125.69187 284.14062L123.41062 286.60938L127.69187 286.60938L127.69187 287.5Z" fill-rule="nonzero"/><path fill="#000000" d="M281.89062 349.45L281.89062 340.85626L283.57812 340.85626L287.09375 346.59064L287.09375 340.85626L288.70312 340.85626L288.70312 349.45L286.96875 349.45L283.5 343.84064L283.5 349.45L281.89062 349.45ZM294.95312 349.45L294.95312 348.5125Q294.625 349.0125 294.0625 349.3094Q293.51562 349.59064 292.89062 349.59064Q292.26562 349.59064 291.76562 349.325Q291.26562 349.04376 291.04688 348.54376Q290.82812 348.04376 290.82812 347.16876L290.82812 343.23126L292.46875 343.23126L292.46875 346.09064Q292.46875 347.40314 292.5625 347.7Q292.65625 347.9969 292.89062 348.16876Q293.14062 348.34064 293.5 348.34064Q293.92188 348.34064 294.25 348.10626Q294.59375 347.8719 294.71875 347.52814Q294.84375 347.1844 294.84375 345.85626L294.84375 343.23126L296.48438 343.23126L296.48438 349.45L294.95312 349.45ZM297.73438 343.23126L299.25 343.23126L299.25 344.075Q300.07812 343.09064 301.20312 343.09064Q301.79688 343.09064 302.23438 343.34064Q302.67188 343.575 302.95312 344.075Q303.35938 343.575 303.82812 343.34064Q304.3125 343.09064 304.85938 343.09064Q305.53125 343.09064 306.0 343.3719Q306.48438 343.6375 306.71875 344.1844Q306.89062 344.575 306.89062 345.46564L306.89062 349.45L305.25 349.45L305.25 345.8875Q305.25 344.96564 305.07812 344.7Q304.84375 344.34064 304.375 344.34064Q304.03125 344.34064 303.71875 344.5594Q303.42188 344.7625 303.28125 345.16876Q303.14062 345.575 303.14062 346.46564L303.14062 349.45L301.5 349.45L301.5 346.04376Q301.5 345.1375 301.40625 344.8719Q301.32812 344.60626 301.14062 344.48126Q300.95312 344.34064 300.64062 344.34064Q300.26562 344.34064 299.95312 344.5594Q299.65625 344.7625 299.51562 345.15314Q299.39062 345.52814 299.39062 346.41876L299.39062 349.45L297.73438 349.45L297.73438 343.23126ZM308.79688 349.45L308.79688 340.85626L310.4375 340.85626L310.4375 343.95Q311.20312 343.09064 312.25 343.09064Q313.375 343.09064 314.125 343.91876Q314.875 344.73126 314.875 346.27814Q314.875 347.8719 314.10938 348.73126Q313.34375 349.59064 312.26562 349.59064Q311.73438 349.59064 311.21875 349.325Q310.70312 349.0594 310.32812 348.52814L310.32812 349.45L308.79688 349.45ZM310.42188 346.2Q310.42188 347.16876 310.73438 347.6375Q311.15625 348.29376 311.875 348.29376Q312.40625 348.29376 312.79688 347.825Q313.1875 347.35626 313.1875 346.35626Q313.1875 345.29376 312.79688 344.825Q312.40625 344.34064 311.79688 344.34064Q311.21875 344.34064 310.8125 344.8094Q310.42188 345.2625 310.42188 346.2ZM319.46875 347.46564L321.10938 347.7469Q320.79688 348.65314 320.10938 349.1219Q319.42188 349.59064 318.40625 349.59064Q316.78125 349.59064 316.0 348.52814Q315.375 347.6844 315.375 346.3875Q315.375 344.84064 316.1875 343.96564Q317.0 343.09064 318.23438 343.09064Q319.625 343.09064 320.42188 344.0125Q321.23438 344.91876 321.1875 346.8094L317.0625 346.8094Q317.09375 347.54376 317.46875 347.95Q317.84375 348.35626 318.42188 348.35626Q318.79688 348.35626 319.0625 348.15314Q319.32812 347.9344 319.46875 347.46564ZM319.5625 345.8094Q319.54688 345.09064 319.1875 344.71564Q318.84375 344.34064 318.32812 344.34064Q317.79688 344.34064 317.4375 344.73126Q317.09375 345.1375 317.09375 345.8094L319.5625 345.8094ZM324.4375 349.45L322.79688 349.45L322.79688 343.23126L324.32812 343.23126L324.32812 344.10626Q324.71875 343.48126 325.03125 343.29376Q325.34375 343.09064 325.73438 343.09064Q326.29688 343.09064 326.82812 343.40314L326.3125 344.825Q325.89062 344.5594 325.54688 344.5594Q325.1875 344.5594 324.95312 344.7625Q324.71875 344.95 324.57812 345.45Q324.4375 345.9344 324.4375 347.52814L324.4375 349.45ZM330.48438 346.2469Q330.48438 345.4344 330.89062 344.66876Q331.29688 343.8875 332.03125 343.4969Q332.76562 343.09064 333.6875 343.09064Q335.09375 343.09064 336.0 344.0125Q336.90625 344.91876 336.90625 346.325Q336.90625 347.73126 335.98438 348.66876Q335.07812 349.59064 333.70312 349.59064Q332.84375 349.59064 332.0625 349.2Q331.29688 348.8094 330.89062 348.075Q330.48438 347.325 330.48438 346.2469ZM332.17188 346.34064Q332.17188 347.2625 332.60938 347.7625Q333.04688 348.2469 333.6875 348.2469Q334.34375 348.2469 334.76562 347.7625Q335.20312 347.2625 335.20312 346.325Q335.20312 345.41876 334.76562 344.9344Q334.34375 344.4344 333.6875 344.4344Q333.04688 344.4344 332.60938 344.9344Q332.17188 345.41876 332.17188 346.34064ZM337.14062 343.23126L338.0625 343.23126L338.0625 342.7625Q338.0625 341.96564 338.21875 341.59064Q338.39062 341.2 338.82812 340.96564Q339.28125 340.71564 339.96875 340.71564Q340.67188 340.71564 341.34375 340.91876L341.125 342.075Q340.73438 341.98126 340.375 341.98126Q340.01562 341.98126 339.85938 342.15314Q339.70312 342.3094 339.70312 342.79376L339.70312 343.23126L340.9375 343.23126L340.9375 344.52814L339.70312 344.52814L339.70312 349.45L338.0625 349.45L338.0625 344.52814L337.14062 344.52814L337.14062 343.23126ZM348.875 346.29376L348.875 344.84064L352.60938 344.84064L352.60938 348.2625Q352.0625 348.79376 351.03125 349.2Q350.0 349.59064 348.9375 349.59064Q347.59375 349.59064 346.57812 349.02814Q345.57812 348.46564 345.07812 347.41876Q344.57812 346.35626 344.57812 345.1219Q344.57812 343.77814 345.14062 342.7469Q345.70312 341.7 346.78125 341.1375Q347.60938 340.71564 348.84375 340.71564Q350.4375 340.71564 351.32812 341.3875Q352.23438 342.0594 352.5 343.23126L350.78125 343.5594Q350.59375 342.9344 350.09375 342.575Q349.59375 342.2 348.84375 342.2Q347.70312 342.2 347.03125 342.91876Q346.35938 343.6375 346.35938 345.0594Q346.35938 346.59064 347.03125 347.35626Q347.71875 348.10626 348.82812 348.10626Q349.375 348.10626 349.92188 347.90314Q350.46875 347.6844 350.85938 347.3875L350.85938 346.29376L348.875 346.29376ZM355.09375 345.1219L353.59375 344.85626Q353.84375 343.95 354.45312 343.52814Q355.07812 343.09064 356.29688 343.09064Q357.39062 343.09064 357.92188 343.35626Q358.46875 343.60626 358.6875 344.0125Q358.90625 344.40314 358.90625 345.48126L358.89062 347.40314Q358.89062 348.23126 358.96875 348.6219Q359.04688 348.9969 359.26562 349.45L357.64062 349.45Q357.57812 349.27814 357.48438 348.96564Q357.4375 348.8094 357.42188 348.7625Q357.0 349.1844 356.51562 349.3875Q356.04688 349.59064 355.5 349.59064Q354.53125 349.59064 353.96875 349.075Q353.42188 348.54376 353.42188 347.7469Q353.42188 347.21564 353.67188 346.8094Q353.9375 346.40314 354.39062 346.1844Q354.84375 345.95 355.70312 345.79376Q356.84375 345.575 357.29688 345.3875L357.29688 345.23126Q357.29688 344.7469 357.0625 344.54376Q356.82812 344.34064 356.17188 344.34064Q355.73438 344.34064 355.48438 344.5125Q355.25 344.6844 355.09375 345.1219ZM357.29688 346.46564Q356.98438 346.5594 356.29688 346.71564Q355.60938 346.85626 355.39062 346.9969Q355.07812 347.23126 355.07812 347.575Q355.07812 347.91876 355.32812 348.1844Q355.59375 348.4344 355.98438 348.4344Q356.4375 348.4344 356.84375 348.1375Q357.14062 347.91876 357.23438 347.59064Q357.29688 347.3875 357.29688 346.79376L357.29688 346.46564ZM360.73438 343.23126L362.25 343.23126L362.25 344.075Q363.07812 343.09064 364.20312 343.09064Q364.79688 343.09064 365.23438 343.34064Q365.67188 343.575 365.95312 344.075Q366.35938 343.575 366.82812 343.34064Q367.3125 343.09064 367.85938 343.09064Q368.53125 343.09064 369.0 343.3719Q369.48438 343.6375 369.71875 344.1844Q369.89062 344.575 369.89062 345.46564L369.89062 349.45L368.25 349.45L368.25 345.8875Q368.25 344.96564 368.07812 344.7Q367.84375 344.34064 367.375 344.34064Q367.03125 344.34064 366.71875 344.5594Q366.42188 344.7625 366.28125 345.16876Q366.14062 345.575 366.14062 346.46564L366.14062 349.45L364.5 349.45L364.5 346.04376Q364.5 345.1375 364.40625 344.8719Q364.32812 344.60626 364.14062 344.48126Q363.95312 344.34064 363.64062 344.34064Q363.26562 344.34064 362.95312 344.5594Q362.65625 344.7625 362.51562 345.15314Q362.39062 345.52814 362.39062 346.41876L362.39062 349.45L360.73438 349.45L360.73438 343.23126ZM375.46875 347.46564L377.10938 347.7469Q376.79688 348.65314 376.10938 349.1219Q375.42188 349.59064 374.40625 349.59064Q372.78125 349.59064 372.0 348.52814Q371.375 347.6844 371.375 346.3875Q371.375 344.84064 372.1875 343.96564Q373.0 343.09064 374.23438 343.09064Q375.625 343.09064 376.42188 344.0125Q377.23438 344.91876 377.1875 346.8094L373.0625 346.8094Q373.09375 347.54376 373.46875 347.95Q373.84375 348.35626 374.42188 348.35626Q374.79688 348.35626 375.0625 348.15314Q375.32812 347.9344 375.46875 347.46564ZM375.5625 345.8094Q375.54688 345.09064 375.1875 344.71564Q374.84375 344.34064 374.32812 344.34064Q373.79688 344.34064 373.4375 344.73126Q373.09375 345.1375 373.09375 345.8094L375.5625 345.8094ZM378.28125 347.66876L379.9375 347.41876Q380.04688 347.90314 380.35938 348.15314Q380.6875 348.40314 381.26562 348.40314Q381.90625 348.40314 382.21875 348.16876Q382.4375 347.9969 382.4375 347.73126Q382.4375 347.54376 382.32812 347.41876Q382.20312 347.29376 381.78125 347.2Q379.78125 346.7625 379.25 346.40314Q378.51562 345.8875 378.51562 344.9969Q378.51562 344.1844 379.14062 343.6375Q379.78125 343.09064 381.125 343.09064Q382.40625 343.09064 383.03125 343.5125Q383.65625 343.91876 383.89062 344.73126L382.32812 345.0125Q382.23438 344.65314 381.95312 344.46564Q381.67188 344.2625 381.15625 344.2625Q380.51562 344.2625 380.23438 344.45Q380.04688 344.575 380.04688 344.77814Q380.04688 344.96564 380.20312 345.09064Q380.42188 345.2469 381.73438 345.54376Q383.0625 345.84064 383.57812 346.27814Q384.09375 346.71564 384.09375 347.4969Q384.09375 348.35626 383.375 348.98126Q382.67188 349.59064 381.26562 349.59064Q380.0 349.59064 379.25 349.075Q378.51562 348.5594 378.28125 347.66876Z" fill-rule="nonzero"/><path fill="#000000" d="M29.550013 237.29271L20.956263 237.29271L20.956263 235.60521L26.690638 232.08958L20.956263 232.08958L20.956263 230.48021L29.550013 230.48021L29.550013 232.21458L23.940638 235.68333L29.550013 235.68333L29.550013 237.29271ZM29.550013 224.23021L28.612513 224.23021Q29.112513 224.55833 29.409388 225.12083Q29.690638 225.66771 29.690638 226.29271Q29.690638 226.91771 29.425013 227.41771Q29.143763 227.91771 28.643763 228.13646Q28.143763 228.35521 27.268763 228.35521L23.331263 228.35521L23.331263 226.71458L26.190638 226.71458Q27.503138 226.71458 27.800013 226.62083Q28.096888 226.52708 28.268763 226.29271Q28.440638 226.04271 28.440638 225.68333Q28.440638 225.26146 28.206263 224.93333Q27.971888 224.58958 27.628138 224.46458Q27.284388 224.33958 25.956263 224.33958L23.331263 224.33958L23.331263 222.69896L29.550013 222.69896L29.550013 224.23021ZM23.331263 221.44896L23.331263 219.93333L24.175013 219.93333Q23.190638 219.10521 23.190638 217.98021Q23.190638 217.38646 23.440638 216.94896Q23.675013 216.51146 24.175013 216.23021Q23.675013 215.82396 23.440638 215.35521Q23.190638 214.87083 23.190638 214.32396Q23.190638 213.65208 23.471888 213.18333Q23.737513 212.69896 24.284388 212.46458Q24.675013 212.29271 25.565638 212.29271L29.550013 212.29271L29.550013 213.93333L25.987513 213.93333Q25.065638 213.93333 24.800013 214.10521Q24.440638 214.33958 24.440638 214.80833Q24.440638 215.15208 24.659388 215.46458Q24.862513 215.76146 25.268763 215.90208Q25.675013 216.04271 26.565638 216.04271L29.550013 216.04271L29.550013 217.68333L26.143763 217.68333Q25.237513 217.68333 24.971888 217.77708Q24.706263 217.85521 24.581263 218.04271Q24.440638 218.23021 24.440638 218.54271Q24.440638 218.91771 24.659388 219.23021Q24.862513 219.52708 25.253138 219.66771Q25.628138 219.79271 26.518763 219.79271L29.550013 219.79271L29.550013 221.44896L23.331263 221.44896ZM29.550013 210.38646L20.956263 210.38646L20.956263 208.74583L24.050013 208.74583Q23.190638 207.98021 23.190638 206.93333Q23.190638 205.80833 24.018763 205.05833Q24.831263 204.30833 26.378138 204.30833Q27.971888 204.30833 28.831263 205.07396Q29.690638 205.83958 29.690638 206.91771Q29.690638 207.44896 29.425013 207.96458Q29.159388 208.48021 28.628138 208.85521L29.550013 208.85521L29.550013 210.38646ZM26.300013 208.76146Q27.268763 208.76146 27.737513 208.44896Q28.393763 208.02708 28.393763 207.30833Q28.393763 206.77708 27.925013 206.38646Q27.456263 205.99583 26.456263 205.99583Q25.393763 205.99583 24.925013 206.38646Q24.440638 206.77708 24.440638 207.38646Q24.440638 207.96458 24.909388 208.37083Q25.362513 208.76146 26.300013 208.76146ZM27.565638 199.71458L27.846888 198.07396Q28.753138 198.38646 29.221888 199.07396Q29.690638 199.76146 29.690638 200.77708Q29.690638 202.40208 28.628138 203.18333Q27.784388 203.80833 26.487513 203.80833Q24.940638 203.80833 24.065638 202.99583Q23.190638 202.18333 23.190638 200.94896Q23.190638 199.55833 24.112513 198.76146Q25.018763 197.94896 26.909388 197.99583L26.909388 202.12083Q27.643763 202.08958 28.050013 201.71458Q28.456263 201.33958 28.456263 200.76146Q28.456263 200.38646 28.253138 200.12083Q28.034388 199.85521 27.565638 199.71458ZM25.909388 199.62083Q25.190638 199.63646 24.815638 199.99583Q24.440638 200.33958 24.440638 200.85521Q24.440638 201.38646 24.831263 201.74583Q25.237513 202.08958 25.909388 202.08958L25.909388 199.62083ZM29.550013 194.74583L29.550013 196.38646L23.331263 196.38646L23.331263 194.85521L24.206263 194.85521Q23.581263 194.46458 23.393763 194.15208Q23.190638 193.83958 23.190638 193.44896Q23.190638 192.88646 23.503138 192.35521L24.925013 192.87083Q24.659388 193.29271 24.659388 193.63646Q24.659388 193.99583 24.862513 194.23021Q25.050013 194.46458 25.550013 194.60521Q26.034388 194.74583 27.628138 194.74583L29.550013 194.74583ZM26.346888 188.69896Q25.534388 188.69896 24.768763 188.29271Q23.987513 187.88646 23.596888 187.15208Q23.190638 186.41771 23.190638 185.49583Q23.190638 184.08958 24.112513 183.18333Q25.018763 182.27708 26.425013 182.27708Q27.831263 182.27708 28.768763 183.19896Q29.690638 184.10521 29.690638 185.48021Q29.690638 186.33958 29.300013 187.12083Q28.909388 187.88646 28.175013 188.29271Q27.425013 188.69896 26.346888 188.69896ZM26.440638 187.01146Q27.362513 187.01146 27.862513 186.57396Q28.346888 186.13646 28.346888 185.49583Q28.346888 184.83958 27.862513 184.41771Q27.362513 183.98021 26.425013 183.98021Q25.518763 183.98021 25.034388 184.41771Q24.534388 184.83958 24.534388 185.49583Q24.534388 186.13646 25.034388 186.57396Q25.518763 187.01146 26.440638 187.01146ZM23.331263 182.04271L23.331263 181.12083L22.862513 181.12083Q22.065638 181.12083 21.690638 180.96458Q21.300013 180.79271 21.065638 180.35521Q20.815638 179.90208 20.815638 179.21458Q20.815638 178.51146 21.018763 177.83958L22.175013 178.05833Q22.081263 178.44896 22.081263 178.80833Q22.081263 179.16771 22.253138 179.32396Q22.409388 179.48021 22.893763 179.48021L23.331263 179.48021L23.331263 178.24583L24.628138 178.24583L24.628138 179.48021L29.550013 179.48021L29.550013 181.12083L24.628138 181.12083L24.628138 182.04271L23.331263 182.04271ZM29.550013 174.33958L20.956263 174.33958L20.956263 171.73021L26.815638 170.18333L20.956263 168.63646L20.956263 166.04271L29.550013 166.04271L29.550013 167.65208L22.784388 167.65208L29.550013 169.35521L29.550013 171.02708L22.784388 172.71458L29.550013 172.71458L29.550013 174.33958ZM26.346888 164.69896Q25.534388 164.69896 24.768763 164.29271Q23.987513 163.88646 23.596888 163.15208Q23.190638 162.41771 23.190638 161.49583Q23.190638 160.08958 24.112513 159.18333Q25.018763 158.27708 26.425013 158.27708Q27.831263 158.27708 28.768763 159.19896Q29.690638 160.10521 29.690638 161.48021Q29.690638 162.33958 29.300013 163.12083Q28.909388 163.88646 28.175013 164.29271Q27.425013 164.69896 26.346888 164.69896ZM26.440638 163.01146Q27.362513 163.01146 27.862513 162.57396Q28.346888 162.13646 28.346888 161.49583Q28.346888 160.83958 27.862513 160.41771Q27.362513 159.98021 26.425013 159.98021Q25.518763 159.98021 25.034388 160.41771Q24.534388 160.83958 24.534388 161.49583Q24.534388 162.13646 25.034388 162.57396Q25.518763 163.01146 26.440638 163.01146ZM29.550013 155.60521L23.331263 158.12083L23.331263 156.38646L26.503138 155.21458L27.565638 154.87083Q27.159388 154.74583 27.034388 154.71458Q26.768763 154.62083 26.503138 154.52708L23.331263 153.35521L23.331263 151.65208L29.550013 154.12083L29.550013 155.60521ZM27.565638 146.71458L27.846888 145.07396Q28.753138 145.38646 29.221888 146.07396Q29.690638 146.76146 29.690638 147.77708Q29.690638 149.40208 28.628138 150.18333Q27.784388 150.80833 26.487513 150.80833Q24.940638 150.80833 24.065638 149.99583Q23.190638 149.18333 23.190638 147.94896Q23.190638 146.55833 24.112513 145.76146Q25.018763 144.94896 26.909388 144.99583L26.909388 149.12083Q27.643763 149.08958 28.050013 148.71458Q28.456263 148.33958 28.456263 147.76146Q28.456263 147.38646 28.253138 147.12083Q28.034388 146.85521 27.565638 146.71458ZM25.909388 146.62083Q25.190638 146.63646 24.815638 146.99583Q24.440638 147.33958 24.440638 147.85521Q24.440638 148.38646 24.831263 148.74583Q25.237513 149.08958 25.909388 149.08958L25.909388 146.62083ZM27.768763 143.90208L27.518763 142.24583Q28.003138 142.13646 28.253138 141.82396Q28.503138 141.49583 28.503138 140.91771Q28.503138 140.27708 28.268763 139.96458Q28.096888 139.74583 27.831263 139.74583Q27.643763 139.74583 27.518763 139.85521Q27.393763 139.98021 27.300013 140.40208Q26.862513 142.40208 26.503138 142.93333Q25.987513 143.66771 25.096888 143.66771Q24.284388 143.66771 23.737513 143.04271Q23.190638 142.40208 23.190638 141.05833Q23.190638 139.77708 23.612513 139.15208Q24.018763 138.52708 24.831263 138.29271L25.112513 139.85521Q24.753138 139.94896 24.565638 140.23021Q24.362513 140.51146 24.362513 141.02708Q24.362513 141.66771 24.550013 141.94896Q24.675013 142.13646 24.878138 142.13646Q25.065638 142.13646 25.190638 141.98021Q25.346888 141.76146 25.643763 140.44896Q25.940638 139.12083 26.378138 138.60521Q26.815638 138.08958 27.596888 138.08958Q28.456263 138.08958 29.081263 138.80833Q29.690638 139.51146 29.690638 140.91771Q29.690638 142.18333 29.175013 142.93333Q28.659388 143.66771 27.768763 143.90208Z" fill-rule="nonzero"/><path fill="#000000" d="M63.596874 75.62671L63.596874 76.642334L57.909374 76.642334Q57.909374 76.267334 58.034374 75.90796Q58.253124 75.329834 58.721874 74.767334Q59.20625 74.204834 60.1125 73.47046Q61.51875 72.31421 62.003124 71.642334Q62.503124 70.97046 62.503124 70.37671Q62.503124 69.75171 62.05 69.329834Q61.596874 68.892334 60.878124 68.892334Q60.1125 68.892334 59.659374 69.34546Q59.20625 69.798584 59.190624 70.611084L58.1125 70.50171Q58.221874 69.28296 58.940624 68.65796Q59.675 68.017334 60.909374 68.017334Q62.14375 68.017334 62.8625 68.704834Q63.58125 69.392334 63.58125 70.40796Q63.58125 70.923584 63.3625 71.423584Q63.159374 71.90796 62.659374 72.47046Q62.175 73.017334 61.05 73.97046Q60.096874 74.767334 59.815624 75.06421Q59.55 75.34546 59.378124 75.62671L63.596874 75.62671ZM65.05 72.40796Q65.05 70.87671 65.3625 69.954834Q65.675 69.017334 66.28438 68.517334Q66.90938 68.017334 67.84688 68.017334Q68.53438 68.017334 69.05 68.298584Q69.58125 68.579834 69.925 69.111084Q70.26875 69.62671 70.45625 70.37671Q70.64375 71.12671 70.64375 72.40796Q70.64375 73.923584 70.33125 74.84546Q70.03438 75.767334 69.40938 76.28296Q68.8 76.78296 67.84688 76.78296Q66.6125 76.78296 65.89375 75.892334Q65.05 74.829834 65.05 72.40796ZM66.12813 72.40796Q66.12813 74.517334 66.62813 75.22046Q67.12813 75.923584 67.84688 75.923584Q68.58125 75.923584 69.06563 75.22046Q69.56563 74.517334 69.56563 72.40796Q69.56563 70.28296 69.06563 69.59546Q68.58125 68.892334 67.83125 68.892334Q67.1125 68.892334 66.675 69.50171Q66.12813 70.28296 66.12813 72.40796ZM74.55 75.25171L74.55 72.892334L72.22188 72.892334L72.22188 71.90796L74.55 71.90796L74.55 69.579834L75.55 69.579834L75.55 71.90796L77.89375 71.90796L77.89375 72.892334L75.55 72.892334L75.55 75.25171L74.55 75.25171Z" fill-rule="nonzero"/><path fill="#000000" d="M58.05 100.63696L59.1125 100.49634Q59.284374 101.38696 59.721874 101.79321Q60.159374 102.18384 60.784374 102.18384Q61.534374 102.18384 62.05 101.66821Q62.565624 101.15259 62.565624 100.38696Q62.565624 99.66821 62.08125 99.19946Q61.6125 98.71509 60.878124 98.71509Q60.58125 98.71509 60.128124 98.84009L60.253124 97.90259Q60.3625 97.91821 60.425 97.91821Q61.096874 97.91821 61.628124 97.57446Q62.175 97.21509 62.175 96.48071Q62.175 95.90259 61.784374 95.52759Q61.39375 95.13696 60.76875 95.13696Q60.159374 95.13696 59.7375 95.52759Q59.33125 95.91821 59.221874 96.68384L58.159374 96.49634Q58.346874 95.44946 59.034374 94.87134Q59.721874 94.27759 60.7375 94.27759Q61.440624 94.27759 62.034374 94.59009Q62.628124 94.88696 62.940624 95.40259Q63.253124 95.91821 63.253124 96.51196Q63.253124 97.05884 62.95625 97.52759Q62.659374 97.98071 62.08125 98.24634Q62.83125 98.41821 63.253124 98.98071Q63.675 99.52759 63.675 100.37134Q63.675 101.49634 62.846874 102.27759Q62.034374 103.05884 60.784374 103.05884Q59.659374 103.05884 58.909374 102.38696Q58.159374 101.69946 58.05 100.63696ZM65.05 98.66821Q65.05 97.13696 65.3625 96.21509Q65.675 95.27759 66.28438 94.77759Q66.90938 94.27759 67.84688 94.27759Q68.53438 94.27759 69.05 94.55884Q69.58125 94.84009 69.925 95.37134Q70.26875 95.88696 70.45625 96.63696Q70.64375 97.38696 70.64375 98.66821Q70.64375 100.18384 70.33125 101.10571Q70.03438 102.02759 69.40938 102.54321Q68.8 103.04321 67.84688 103.04321Q66.6125 103.04321 65.89375 102.15259Q65.05 101.09009 65.05 98.66821ZM66.12813 98.66821Q66.12813 100.77759 66.62813 101.48071Q67.12813 102.18384 67.84688 102.18384Q68.58125 102.18384 69.06563 101.48071Q69.56563 100.77759 69.56563 98.66821Q69.56563 96.54321 69.06563 95.85571Q68.58125 95.15259 67.83125 95.15259Q67.1125 95.15259 66.675 95.76196Q66.12813 96.54321 66.12813 98.66821ZM74.55 101.51196L74.55 99.15259L72.22188 99.15259L72.22188 98.16821L74.55 98.16821L74.55 95.84009L75.55 95.84009L75.55 98.16821L77.89375 98.16821L77.89375 99.15259L75.55 99.15259L75.55 101.51196L74.55 101.51196Z" fill-rule="nonzero"/><path fill="#000000" d="M61.425 129.16284L61.425 127.10034L57.70625 127.10034L57.70625 126.13159L61.628124 120.56909L62.4875 120.56909L62.4875 126.13159L63.64375 126.13159L63.64375 127.10034L62.4875 127.10034L62.4875 129.16284L61.425 129.16284ZM61.425 126.13159L61.425 122.27222L58.7375 126.13159L61.425 126.13159ZM65.05 124.92847Q65.05 123.39722 65.3625 122.47534Q65.675 121.53784 66.28438 121.03784Q66.90938 120.53784 67.84688 120.53784Q68.53438 120.53784 69.05 120.81909Q69.58125 121.10034 69.925 121.63159Q70.26875 122.14722 70.45625 122.89722Q70.64375 123.64722 70.64375 124.92847Q70.64375 126.44409 70.33125 127.36597Q70.03438 128.28784 69.40938 128.80347Q68.8 129.30347 67.84688 129.30347Q66.6125 129.30347 65.89375 128.41284Q65.05 127.35034 65.05 124.92847ZM66.12813 124.92847Q66.12813 127.03784 66.62813 127.74097Q67.12813 128.44409 67.84688 128.44409Q68.58125 128.44409 69.06563 127.74097Q69.56563 127.03784 69.56563 124.92847Q69.56563 122.80347 69.06563 122.11597Q68.58125 121.41284 67.83125 121.41284Q67.1125 121.41284 66.675 122.02222Q66.12813 122.80347 66.12813 124.92847ZM74.55 127.77222L74.55 125.41284L72.22188 125.41284L72.22188 124.42847L74.55 124.42847L74.55 122.10034L75.55 122.10034L75.55 124.42847L77.89375 124.42847L77.89375 125.41284L75.55 125.41284L75.55 127.77222L74.55 127.77222Z" fill-rule="nonzero"/><path fill="#000000" d="M58.05 153.17308L59.159374 153.07933Q59.284374 153.89183 59.721874 154.29808Q60.175 154.70433 60.815624 154.70433Q61.565624 154.70433 62.096874 154.1262Q62.628124 153.54808 62.628124 152.61058Q62.628124 151.70433 62.1125 151.1887Q61.6125 150.65746 60.784374 150.65746Q60.284374 150.65746 59.8625 150.89183Q59.45625 151.1262 59.221874 151.48558L58.2375 151.36058L59.065624 146.95433L63.346874 146.95433L63.346874 147.95433L59.909374 147.95433L59.45625 150.26683Q60.221874 149.71996 61.065624 149.71996Q62.190624 149.71996 62.95625 150.5012Q63.7375 151.28246 63.7375 152.51683Q63.7375 153.67308 63.065624 154.53246Q62.2375 155.5637 60.815624 155.5637Q59.64375 155.5637 58.89375 154.90746Q58.159374 154.2512 58.05 153.17308ZM65.05 151.1887Q65.05 149.65746 65.3625 148.73558Q65.675 147.79808 66.28438 147.29808Q66.90938 146.79808 67.84688 146.79808Q68.53438 146.79808 69.05 147.07933Q69.58125 147.36058 69.925 147.89183Q70.26875 148.40746 70.45625 149.15746Q70.64375 149.90746 70.64375 151.1887Q70.64375 152.70433 70.33125 153.6262Q70.03438 154.54808 69.40938 155.0637Q68.8 155.5637 67.84688 155.5637Q66.6125 155.5637 65.89375 154.67308Q65.05 153.61058 65.05 151.1887ZM66.12813 151.1887Q66.12813 153.29808 66.62813 154.0012Q67.12813 154.70433 67.84688 154.70433Q68.58125 154.70433 69.06563 154.0012Q69.56563 153.29808 69.56563 151.1887Q69.56563 149.0637 69.06563 148.3762Q68.58125 147.67308 67.83125 147.67308Q67.1125 147.67308 66.675 148.28246Q66.12813 149.0637 66.12813 151.1887ZM74.55 154.03246L74.55 151.67308L72.22188 151.67308L72.22188 150.6887L74.55 150.6887L74.55 148.36058L75.55 148.36058L75.55 150.6887L77.89375 150.6887L77.89375 151.67308L75.55 151.67308L75.55 154.03246L74.55 154.03246Z" fill-rule="nonzero"/><path fill="#000000" d="M63.51875 175.19896L62.471874 175.27708Q62.33125 174.65208 62.08125 174.37083Q61.64375 173.91771 61.01875 173.91771Q60.51875 173.91771 60.128124 174.19896Q59.64375 174.57396 59.346874 175.27708Q59.065624 175.96458 59.05 177.24583Q59.425 176.66771 59.971874 176.38646Q60.534374 176.10521 61.14375 176.10521Q62.190624 176.10521 62.925 176.88646Q63.675 177.66771 63.675 178.88646Q63.675 179.69896 63.315624 180.40208Q62.971874 181.08958 62.3625 181.46458Q61.753124 181.82396 60.9875 181.82396Q59.659374 181.82396 58.83125 180.85521Q58.003124 179.88646 58.003124 177.66771Q58.003124 175.16771 58.925 174.04271Q59.721874 173.05833 61.08125 173.05833Q62.096874 173.05833 62.7375 173.63646Q63.39375 174.19896 63.51875 175.19896ZM59.221874 178.90208Q59.221874 179.44896 59.440624 179.94896Q59.675 180.43333 60.08125 180.69896Q60.503124 180.96458 60.971874 180.96458Q61.628124 180.96458 62.1125 180.43333Q62.596874 179.88646 62.596874 178.96458Q62.596874 178.07396 62.1125 177.55833Q61.64375 177.04271 60.925 177.04271Q60.20625 177.04271 59.70625 177.55833Q59.221874 178.07396 59.221874 178.90208ZM65.05 177.44896Q65.05 175.91771 65.3625 174.99583Q65.675 174.05833 66.28438 173.55833Q66.90938 173.05833 67.84688 173.05833Q68.53438 173.05833 69.05 173.33958Q69.58125 173.62083 69.925 174.15208Q70.26875 174.66771 70.45625 175.41771Q70.64375 176.16771 70.64375 177.44896Q70.64375 178.96458 70.33125 179.88646Q70.03438 180.80833 69.40938 181.32396Q68.8 181.82396 67.84688 181.82396Q66.6125 181.82396 65.89375 180.93333Q65.05 179.87083 65.05 177.44896ZM66.12813 177.44896Q66.12813 179.55833 66.62813 180.26146Q67.12813 180.96458 67.84688 180.96458Q68.58125 180.96458 69.06563 180.26146Q69.56563 179.55833 69.56563 177.44896Q69.56563 175.32396 69.06563 174.63646Q68.58125 173.93333 67.83125 173.93333Q67.1125 173.93333 66.675 174.54271Q66.12813 175.32396 66.12813 177.44896ZM74.55 180.29271L74.55 177.93333L72.22188 177.93333L72.22188 176.94896L74.55 176.94896L74.55 174.62083L75.55 174.62083L75.55 176.94896L77.89375 176.94896L77.89375 177.93333L75.55 177.93333L75.55 180.29271L74.55 180.29271Z" fill-rule="nonzero"/><path fill="#000000" d="M58.1125 200.47484L58.1125 199.45921L63.675 199.45921L63.675 200.28734Q62.8625 201.16234 62.05 202.61546Q61.253124 204.05296 60.815624 205.58421Q60.4875 206.66234 60.409374 207.94359L59.315624 207.94359Q59.33125 206.92796 59.70625 205.49046Q60.096874 204.05296 60.8 202.72484Q61.51875 201.39671 62.33125 200.47484L58.1125 200.47484ZM65.05 203.70921Q65.05 202.17796 65.3625 201.25609Q65.675 200.31859 66.28438 199.81859Q66.90938 199.31859 67.84688 199.31859Q68.53438 199.31859 69.05 199.59984Q69.58125 199.88109 69.925 200.41234Q70.26875 200.92796 70.45625 201.67796Q70.64375 202.42796 70.64375 203.70921Q70.64375 205.22484 70.33125 206.14671Q70.03438 207.06859 69.40938 207.58421Q68.8 208.08421 67.84688 208.08421Q66.6125 208.08421 65.89375 207.19359Q65.05 206.13109 65.05 203.70921ZM66.12813 203.70921Q66.12813 205.81859 66.62813 206.52171Q67.12813 207.22484 67.84688 207.22484Q68.58125 207.22484 69.06563 206.52171Q69.56563 205.81859 69.56563 203.70921Q69.56563 201.58421 69.06563 200.89671Q68.58125 200.19359 67.83125 200.19359Q67.1125 200.19359 66.675 200.80296Q66.12813 201.58421 66.12813 203.70921ZM74.55 206.55296L74.55 204.19359L72.22188 204.19359L72.22188 203.20921L74.55 203.20921L74.55 200.88109L75.55 200.88109L75.55 203.20921L77.89375 203.20921L77.89375 204.19359L75.55 204.19359L75.55 206.55296L74.55 206.55296Z" fill-rule="nonzero"/><path fill="#000000" d="M59.675 229.54758Q59.01875 229.29758 58.690624 228.86008Q58.378124 228.40695 58.378124 227.79758Q58.378124 226.86008 59.05 226.21945Q59.7375 225.57883 60.846874 225.57883Q61.971874 225.57883 62.659374 226.23508Q63.346874 226.89133 63.346874 227.82883Q63.346874 228.42258 63.034374 228.86008Q62.721874 229.29758 62.08125 229.54758Q62.878124 229.79758 63.284374 230.3757Q63.690624 230.95383 63.690624 231.7507Q63.690624 232.84445 62.909374 233.59445Q62.14375 234.34445 60.8625 234.34445Q59.596874 234.34445 58.815624 233.59445Q58.034374 232.84445 58.034374 231.71945Q58.034374 230.8757 58.45625 230.3132Q58.89375 229.7507 59.675 229.54758ZM59.45625 227.7507Q59.45625 228.36008 59.846874 228.7507Q60.253124 229.14133 60.878124 229.14133Q61.4875 229.14133 61.878124 228.76633Q62.26875 228.3757 62.26875 227.8132Q62.26875 227.23508 61.8625 226.84445Q61.45625 226.4382 60.8625 226.4382Q60.253124 226.4382 59.846874 226.82883Q59.45625 227.21945 59.45625 227.7507ZM59.128124 231.71945Q59.128124 232.17258 59.33125 232.59445Q59.55 233.01633 59.971874 233.2507Q60.39375 233.48508 60.878124 233.48508Q61.628124 233.48508 62.1125 233.0007Q62.6125 232.51633 62.6125 231.76633Q62.6125 231.0007 62.1125 230.5007Q61.6125 230.0007 60.846874 230.0007Q60.096874 230.0007 59.6125 230.5007Q59.128124 230.98508 59.128124 231.71945ZM65.05 229.96945Q65.05 228.4382 65.3625 227.51633Q65.675 226.57883 66.28438 226.07883Q66.90938 225.57883 67.84688 225.57883Q68.53438 225.57883 69.05 225.86008Q69.58125 226.14133 69.925 226.67258Q70.26875 227.1882 70.45625 227.9382Q70.64375 228.6882 70.64375 229.96945Q70.64375 231.48508 70.33125 232.40695Q70.03438 233.32883 69.40938 233.84445Q68.8 234.34445 67.84688 234.34445Q66.6125 234.34445 65.89375 233.45383Q65.05 232.39133 65.05 229.96945ZM66.12813 229.96945Q66.12813 232.07883 66.62813 232.78195Q67.12813 233.48508 67.84688 233.48508Q68.58125 233.48508 69.06563 232.78195Q69.56563 232.07883 69.56563 229.96945Q69.56563 227.84445 69.06563 227.15695Q68.58125 226.45383 67.83125 226.45383Q67.1125 226.45383 66.675 227.0632Q66.12813 227.84445 66.12813 229.96945ZM74.55 232.8132L74.55 230.45383L72.22188 230.45383L72.22188 229.46945L74.55 229.46945L74.55 227.14133L75.55 227.14133L75.55 229.46945L77.89375 229.46945L77.89375 230.45383L75.55 230.45383L75.55 232.8132L74.55 232.8132Z" fill-rule="nonzero"/><path fill="#000000" d="M58.20625 258.4797L59.221874 258.38596Q59.346874 259.1047 59.70625 259.43283Q60.08125 259.74533 60.64375 259.74533Q61.128124 259.74533 61.4875 259.52658Q61.8625 259.2922 62.096874 258.93283Q62.33125 258.55783 62.4875 257.93283Q62.64375 257.2922 62.64375 256.63596Q62.64375 256.55783 62.64375 256.4172Q62.33125 256.9172 61.784374 257.24533Q61.2375 257.55783 60.596874 257.55783Q59.51875 257.55783 58.784374 256.7922Q58.05 256.01096 58.05 254.74533Q58.05 253.43283 58.815624 252.63596Q59.596874 251.83908 60.753124 251.83908Q61.58125 251.83908 62.26875 252.2922Q62.971874 252.74533 63.33125 253.58908Q63.690624 254.4172 63.690624 255.99533Q63.690624 257.63596 63.33125 258.62033Q62.9875 259.58908 62.26875 260.1047Q61.565624 260.6047 60.628124 260.6047Q59.6125 260.6047 58.971874 260.05783Q58.33125 259.49533 58.20625 258.4797ZM62.51875 254.68283Q62.51875 253.77658 62.034374 253.24533Q61.565624 252.71408 60.878124 252.71408Q60.175 252.71408 59.64375 253.2922Q59.128124 253.8547 59.128124 254.77658Q59.128124 255.58908 59.628124 256.1047Q60.128124 256.62033 60.846874 256.62033Q61.58125 256.62033 62.05 256.1047Q62.51875 255.58908 62.51875 254.68283ZM65.05 256.2297Q65.05 254.69846 65.3625 253.77658Q65.675 252.83908 66.28438 252.33908Q66.90938 251.83908 67.84688 251.83908Q68.53438 251.83908 69.05 252.12033Q69.58125 252.40158 69.925 252.93283Q70.26875 253.44846 70.45625 254.19846Q70.64375 254.94846 70.64375 256.2297Q70.64375 257.74533 70.33125 258.6672Q70.03438 259.58908 69.40938 260.1047Q68.8 260.6047 67.84688 260.6047Q66.6125 260.6047 65.89375 259.71408Q65.05 258.65158 65.05 256.2297ZM66.12813 256.2297Q66.12813 258.33908 66.62813 259.0422Q67.12813 259.74533 67.84688 259.74533Q68.58125 259.74533 69.06563 259.0422Q69.56563 258.33908 69.56563 256.2297Q69.56563 254.1047 69.06563 253.4172Q68.58125 252.71408 67.83125 252.71408Q67.1125 252.71408 66.675 253.32346Q66.12813 254.1047 66.12813 256.2297ZM74.55 259.07346L74.55 256.71408L72.22188 256.71408L72.22188 255.7297L74.55 255.7297L74.55 253.40158L75.55 253.40158L75.55 255.7297L77.89375 255.7297L77.89375 256.71408L75.55 256.71408L75.55 259.07346L74.55 259.07346Z" fill-rule="nonzero"/><path fill="#000000" d="M55.01875 286.72433L53.971874 286.72433L53.971874 280.00558Q53.58125 280.36496 52.95625 280.73996Q52.346874 281.09933 51.8625 281.2712L51.8625 280.25558Q52.7375 279.8337 53.39375 279.25558Q54.065624 278.66183 54.346874 278.09933L55.01875 278.09933L55.01875 286.72433ZM58.05 282.48996Q58.05 280.9587 58.3625 280.03683Q58.675 279.09933 59.284374 278.59933Q59.909374 278.09933 60.846874 278.09933Q61.534374 278.09933 62.05 278.38058Q62.58125 278.66183 62.925 279.19308Q63.26875 279.7087 63.45625 280.4587Q63.64375 281.2087 63.64375 282.48996Q63.64375 284.00558 63.33125 284.92746Q63.034374 285.84933 62.409374 286.36496Q61.8 286.86496 60.846874 286.86496Q59.6125 286.86496 58.89375 285.97433Q58.05 284.91183 58.05 282.48996ZM59.128124 282.48996Q59.128124 284.59933 59.628124 285.30246Q60.128124 286.00558 60.846874 286.00558Q61.58125 286.00558 62.065624 285.30246Q62.565624 284.59933 62.565624 282.48996Q62.565624 280.36496 62.065624 279.67746Q61.58125 278.97433 60.83125 278.97433Q60.1125 278.97433 59.675 279.5837Q59.128124 280.36496 59.128124 282.48996ZM65.05 282.48996Q65.05 280.9587 65.3625 280.03683Q65.675 279.09933 66.28438 278.59933Q66.90938 278.09933 67.84688 278.09933Q68.53438 278.09933 69.05 278.38058Q69.58125 278.66183 69.925 279.19308Q70.26875 279.7087 70.45625 280.4587Q70.64375 281.2087 70.64375 282.48996Q70.64375 284.00558 70.33125 284.92746Q70.03438 285.84933 69.40938 286.36496Q68.8 286.86496 67.84688 286.86496Q66.6125 286.86496 65.89375 285.97433Q65.05 284.91183 65.05 282.48996ZM66.12813 282.48996Q66.12813 284.59933 66.62813 285.30246Q67.12813 286.00558 67.84688 286.00558Q68.58125 286.00558 69.06563 285.30246Q69.56563 284.59933 69.56563 282.48996Q69.56563 280.36496 69.06563 279.67746Q68.58125 278.97433 67.83125 278.97433Q67.1125 278.97433 66.675 279.5837Q66.12813 280.36496 66.12813 282.48996ZM74.55 285.3337L74.55 282.97433L72.22188 282.97433L72.22188 281.98996L74.55 281.98996L74.55 279.66183L75.55 279.66183L75.55 281.98996L77.89375 281.98996L77.89375 282.97433L75.55 282.97433L75.55 285.3337L74.55 285.3337Z" fill-rule="nonzero"/><path fill="#000000" d="M81.55 313.21564Q81.55 311.6844 81.8625 310.7625Q82.175 309.825 82.78438 309.325Q83.40938 308.825 84.34688 308.825Q85.03438 308.825 85.55 309.10626Q86.08125 309.3875 86.425 309.91876Q86.76875 310.4344 86.95625 311.1844Q87.14375 311.9344 87.14375 313.21564Q87.14375 314.73126 86.83125 315.65314Q86.53438 316.575 85.90938 317.09064Q85.3 317.59064 84.34688 317.59064Q83.1125 317.59064 82.39375 316.7Q81.55 315.6375 81.55 313.21564ZM82.62813 313.21564Q82.62813 315.325 83.12813 316.02814Q83.62813 316.73126 84.34688 316.73126Q85.08125 316.73126 85.56563 316.02814Q86.06563 315.325 86.06563 313.21564Q86.06563 311.09064 85.56563 310.40314Q85.08125 309.7 84.33125 309.7Q83.6125 309.7 83.175 310.3094Q82.62813 311.09064 82.62813 313.21564Z" fill-rule="nonzero"/><path fill="#000000" d="M206.24374 317.45L205.19687 317.45L205.19687 310.73126Q204.80624 311.09064 204.18124 311.46564Q203.57187 311.825 203.0875 311.9969L203.0875 310.98126Q203.9625 310.5594 204.61874 309.98126Q205.29062 309.3875 205.57187 308.825L206.24374 308.825L206.24374 317.45ZM209.275 313.21564Q209.275 311.6844 209.5875 310.7625Q209.9 309.825 210.50937 309.325Q211.13437 308.825 212.07187 308.825Q212.75937 308.825 213.275 309.10626Q213.80624 309.3875 214.15 309.91876Q214.49374 310.4344 214.68124 311.1844Q214.86874 311.9344 214.86874 313.21564Q214.86874 314.73126 214.55624 315.65314Q214.25937 316.575 213.63437 317.09064Q213.025 317.59064 212.07187 317.59064Q210.8375 317.59064 210.11874 316.7Q209.275 315.6375 209.275 313.21564ZM210.35312 313.21564Q210.35312 315.325 210.85312 316.02814Q211.35312 316.73126 212.07187 316.73126Q212.80624 316.73126 213.29062 316.02814Q213.79062 315.325 213.79062 313.21564Q213.79062 311.09064 213.29062 310.40314Q212.80624 309.7 212.05624 309.7Q211.3375 309.7 210.9 310.3094Q210.35312 311.09064 210.35312 313.21564Z" fill-rule="nonzero"/><path fill="#000000" d="M332.04688 316.4344L332.04688 317.45L326.35938 317.45Q326.35938 317.075 326.48438 316.71564Q326.70312 316.1375 327.17188 315.575Q327.65625 315.0125 328.5625 314.27814Q329.96875 313.1219 330.45312 312.45Q330.95312 311.77814 330.95312 311.1844Q330.95312 310.5594 330.5 310.1375Q330.04688 309.7 329.32812 309.7Q328.5625 309.7 328.10938 310.15314Q327.65625 310.60626 327.64062 311.41876L326.5625 311.3094Q326.67188 310.09064 327.39062 309.46564Q328.125 308.825 329.35938 308.825Q330.59375 308.825 331.3125 309.5125Q332.03125 310.2 332.03125 311.21564Q332.03125 311.73126 331.8125 312.23126Q331.60938 312.71564 331.10938 313.27814Q330.625 313.825 329.5 314.77814Q328.54688 315.575 328.26562 315.8719Q328.0 316.15314 327.82812 316.4344L332.04688 316.4344ZM333.5 313.21564Q333.5 311.6844 333.8125 310.7625Q334.125 309.825 334.73438 309.325Q335.35938 308.825 336.29688 308.825Q336.98438 308.825 337.5 309.10626Q338.03125 309.3875 338.375 309.91876Q338.71875 310.4344 338.90625 311.1844Q339.09375 311.9344 339.09375 313.21564Q339.09375 314.73126 338.78125 315.65314Q338.48438 316.575 337.85938 317.09064Q337.25 317.59064 336.29688 317.59064Q335.0625 317.59064 334.34375 316.7Q333.5 315.6375 333.5 313.21564ZM334.57812 313.21564Q334.57812 315.325 335.07812 316.02814Q335.57812 316.73126 336.29688 316.73126Q337.03125 316.73126 337.51562 316.02814Q338.01562 315.325 338.01562 313.21564Q338.01562 311.09064 337.51562 310.40314Q337.03125 309.7 336.28125 309.7Q335.5625 309.7 335.125 310.3094Q334.57812 311.09064 334.57812 313.21564Z" fill-rule="nonzero"/><path fill="#000000" d="M450.725 315.1844L451.7875 315.04376Q451.95938 315.9344 452.39688 316.34064Q452.83438 316.73126 453.45938 316.73126Q454.20938 316.73126 454.725 316.21564Q455.24063 315.7 455.24063 314.9344Q455.24063 314.21564 454.75626 313.7469Q454.2875 313.2625 453.55313 313.2625Q453.25626 313.2625 452.80313 313.3875L452.92813 312.45Q453.0375 312.46564 453.1 312.46564Q453.77188 312.46564 454.30313 312.1219Q454.85 311.7625 454.85 311.02814Q454.85 310.45 454.45938 310.075Q454.06876 309.6844 453.44376 309.6844Q452.83438 309.6844 452.4125 310.075Q452.00626 310.46564 451.89688 311.23126L450.83438 311.04376Q451.02188 309.9969 451.70938 309.41876Q452.39688 308.825 453.4125 308.825Q454.11563 308.825 454.70938 309.1375Q455.30313 309.4344 455.61563 309.95Q455.92813 310.46564 455.92813 311.0594Q455.92813 311.60626 455.63126 312.075Q455.33438 312.52814 454.75626 312.79376Q455.50626 312.96564 455.92813 313.52814Q456.35 314.075 456.35 314.91876Q456.35 316.04376 455.52188 316.825Q454.70938 317.60626 453.45938 317.60626Q452.33438 317.60626 451.58438 316.9344Q450.83438 316.2469 450.725 315.1844ZM457.725 313.21564Q457.725 311.6844 458.0375 310.7625Q458.35 309.825 458.95938 309.325Q459.58438 308.825 460.52188 308.825Q461.20938 308.825 461.725 309.10626Q462.25626 309.3875 462.6 309.91876Q462.94376 310.4344 463.13126 311.1844Q463.31876 311.9344 463.31876 313.21564Q463.31876 314.73126 463.00626 315.65314Q462.70938 316.575 462.08438 317.09064Q461.475 317.59064 460.52188 317.59064Q459.2875 317.59064 458.56876 316.7Q457.725 315.6375 457.725 313.21564ZM458.80313 313.21564Q458.80313 315.325 459.30313 316.02814Q459.80313 316.73126 460.52188 316.73126Q461.25626 316.73126 461.74063 316.02814Q462.24063 315.325 462.24063 313.21564Q462.24063 311.09064 461.74063 310.40314Q461.25626 309.7 460.50626 309.7Q459.7875 309.7 459.35 310.3094Q458.80313 311.09064 458.80313 313.21564Z" fill-rule="nonzero"/><path fill="#000000" d="M578.325 317.45L578.325 315.3875L574.60626 315.3875L574.60626 314.41876L578.52814 308.85626L579.3875 308.85626L579.3875 314.41876L580.54376 314.41876L580.54376 315.3875L579.3875 315.3875L579.3875 317.45L578.325 317.45ZM578.325 314.41876L578.325 310.5594L575.6375 314.41876L578.325 314.41876ZM581.95 313.21564Q581.95 311.6844 582.2625 310.7625Q582.575 309.825 583.1844 309.325Q583.8094 308.825 584.7469 308.825Q585.4344 308.825 585.95 309.10626Q586.48126 309.3875 586.825 309.91876Q587.16876 310.4344 587.35626 311.1844Q587.54376 311.9344 587.54376 313.21564Q587.54376 314.73126 587.23126 315.65314Q586.9344 316.575 586.3094 317.09064Q585.7 317.59064 584.7469 317.59064Q583.5125 317.59064 582.79376 316.7Q581.95 315.6375 581.95 313.21564ZM583.02814 313.21564Q583.02814 315.325 583.52814 316.02814Q584.02814 316.73126 584.7469 316.73126Q585.48126 316.73126 585.96564 316.02814Q586.46564 315.325 586.46564 313.21564Q586.46564 311.09064 585.96564 310.40314Q585.48126 309.7 584.73126 309.7Q584.0125 309.7 583.575 310.3094Q583.02814 311.09064 583.02814 313.21564Z" fill-rule="nonzero"/><path fill="#757575" d="M20.096874 37.55L20.096874 23.2375L25.01875 23.2375Q26.690624 23.2375 27.58125 23.440624Q28.8 23.721874 29.675 24.45625Q30.8 25.425 31.3625 26.909374Q31.925 28.39375 31.925 30.315624Q31.925 31.940624 31.55 33.20625Q31.175 34.45625 30.565624 35.284374Q29.971874 36.1125 29.26875 36.596874Q28.565624 37.065624 27.565624 37.315624Q26.565624 37.55 25.253124 37.55L20.096874 37.55ZM21.9875 35.8625L25.05 35.8625Q26.45625 35.8625 27.253124 35.596874Q28.065624 35.33125 28.55 34.846874Q29.221874 34.175 29.596874 33.05Q29.971874 31.909374 29.971874 30.284374Q29.971874 28.034374 29.2375 26.83125Q28.503124 25.628124 27.440624 25.221874Q26.690624 24.925 25.003124 24.925L21.9875 24.925L21.9875 35.8625ZM33.878124 25.253124L33.878124 23.2375L35.64375 23.2375L35.64375 25.253124L33.878124 25.253124ZM33.878124 37.55L33.878124 27.175L35.64375 27.175L35.64375 37.55L33.878124 37.55ZM37.159374 34.45625L38.909374 34.175Q39.05 35.221874 39.721874 35.784374Q40.39375 36.33125 41.596874 36.33125Q42.8 36.33125 43.378124 35.846874Q43.971874 35.346874 43.971874 34.690624Q43.971874 34.096874 43.45625 33.753124Q43.096874 33.51875 41.659374 33.159374Q39.721874 32.659374 38.971874 32.315624Q38.2375 31.95625 37.846874 31.33125Q37.45625 30.690624 37.45625 29.925Q37.45625 29.2375 37.76875 28.64375Q38.096874 28.05 38.64375 27.659374Q39.05 27.3625 39.753124 27.159374Q40.471874 26.940624 41.284374 26.940624Q42.503124 26.940624 43.425 27.3Q44.346874 27.64375 44.784374 28.253124Q45.221874 28.846874 45.39375 29.846874L43.675 30.08125Q43.55 29.284374 42.9875 28.846874Q42.425 28.39375 41.409374 28.39375Q40.190624 28.39375 39.675 28.8Q39.159374 29.190624 39.159374 29.721874Q39.159374 30.065624 39.378124 30.346874Q39.58125 30.628124 40.05 30.815624Q40.315624 30.909374 41.596874 31.253124Q43.471874 31.753124 44.20625 32.08125Q44.940624 32.39375 45.3625 33.003124Q45.784374 33.596874 45.784374 34.503124Q45.784374 35.378124 45.26875 36.159374Q44.753124 36.940624 43.784374 37.3625Q42.815624 37.784374 41.596874 37.784374Q39.58125 37.784374 38.51875 36.940624Q37.45625 36.096874 37.159374 34.45625ZM51.70625 35.971874L51.95625 37.534374Q51.221874 37.690624 50.628124 37.690624Q49.675 37.690624 49.14375 37.39375Q48.628124 37.08125 48.409374 36.596874Q48.190624 36.096874 48.190624 34.51875L48.190624 28.55L46.909374 28.55L46.909374 27.175L48.190624 27.175L48.190624 24.6125L49.940624 23.55L49.940624 27.175L51.70625 27.175L51.70625 28.55L49.940624 28.55L49.940624 34.6125Q49.940624 35.3625 50.034374 35.58125Q50.128124 35.784374 50.33125 35.925Q50.55 36.05 50.940624 36.05Q51.221874 36.05 51.70625 35.971874ZM53.846874 37.55L53.846874 27.175L55.425 27.175L55.425 28.753124Q56.034374 27.64375 56.55 27.3Q57.065624 26.940624 57.675 26.940624Q58.565624 26.940624 59.4875 27.503124L58.878124 29.14375Q58.2375 28.753124 57.596874 28.753124Q57.01875 28.753124 56.55 29.1125Q56.096874 29.45625 55.89375 30.065624Q55.6125 31.003124 55.6125 32.1125L55.6125 37.55L53.846874 37.55ZM60.878124 25.253124L60.878124 23.2375L62.64375 23.2375L62.64375 25.253124L60.878124 25.253124ZM60.878124 37.55L60.878124 27.175L62.64375 27.175L62.64375 37.55L60.878124 37.55ZM66.4875 37.55L64.8625 37.55L64.8625 23.2375L66.6125 23.2375L66.6125 28.346874Q67.7375 26.940624 69.45625 26.940624Q70.40938 26.940624 71.26875 27.33125Q72.12813 27.721874 72.675 28.425Q73.22188 29.1125 73.53438 30.096874Q73.84688 31.08125 73.84688 32.20625Q73.84688 34.878124 72.53438 36.33125Q71.22188 37.784374 69.37813 37.784374Q67.53438 37.784374 66.4875 36.253124L66.4875 37.55ZM66.47188 32.284374Q66.47188 34.14375 66.97188 34.9875Q67.81563 36.33125 69.22188 36.33125Q70.37813 36.33125 71.20625 35.33125Q72.05 34.33125 72.05 32.346874Q72.05 30.315624 71.2375 29.3625Q70.44063 28.39375 69.3 28.39375Q68.14375 28.39375 67.3 29.39375Q66.47188 30.39375 66.47188 32.284374ZM82.65938 37.55L82.65938 36.01875Q81.45625 37.784374 79.37813 37.784374Q78.45625 37.784374 77.65938 37.440624Q76.8625 37.08125 76.47188 36.55Q76.09688 36.01875 75.94063 35.2375Q75.83125 34.721874 75.83125 33.596874L75.83125 27.175L77.58125 27.175L77.58125 32.925Q77.58125 34.3 77.69063 34.784374Q77.8625 35.471874 78.39375 35.878124Q78.94063 36.26875 79.72188 36.26875Q80.51875 36.26875 81.20625 35.8625Q81.90938 35.45625 82.19063 34.76875Q82.4875 34.065624 82.4875 32.7375L82.4875 27.175L84.2375 27.175L84.2375 37.55L82.65938 37.55ZM90.70625 35.971874L90.95625 37.534374Q90.22188 37.690624 89.62813 37.690624Q88.675 37.690624 88.14375 37.39375Q87.62813 37.08125 87.40938 36.596874Q87.19063 36.096874 87.19063 34.51875L87.19063 28.55L85.90938 28.55L85.90938 27.175L87.19063 27.175L87.19063 24.6125L88.94063 23.55L88.94063 27.175L90.70625 27.175L90.70625 28.55L88.94063 28.55L88.94063 34.6125Q88.94063 35.3625 89.03438 35.58125Q89.12813 35.784374 89.33125 35.925Q89.55 36.05 89.94063 36.05Q90.22188 36.05 90.70625 35.971874ZM92.87813 25.253124L92.87813 23.2375L94.64375 23.2375L94.64375 25.253124L92.87813 25.253124ZM92.87813 37.55L92.87813 27.175L94.64375 27.175L94.64375 37.55L92.87813 37.55ZM96.22188 32.3625Q96.22188 29.4875 97.81563 28.096874Q99.15938 26.940624 101.08125 26.940624Q103.22188 26.940624 104.56563 28.346874Q105.925 29.753124 105.925 32.221874Q105.925 34.221874 105.33125 35.378124Q104.7375 36.51875 103.58125 37.159374Q102.44063 37.784374 101.08125 37.784374Q98.89375 37.784374 97.55 36.39375Q96.22188 34.9875 96.22188 32.3625ZM98.01875 32.3625Q98.01875 34.3625 98.87813 35.346874Q99.75313 36.33125 101.08125 36.33125Q102.39375 36.33125 103.25313 35.346874Q104.12813 34.346874 104.12813 32.3Q104.12813 30.378124 103.25313 29.39375Q102.37813 28.39375 101.08125 28.39375Q99.75313 28.39375 98.87813 29.39375Q98.01875 30.378124 98.01875 32.3625ZM107.8625 37.55L107.8625 27.175L109.45625 27.175L109.45625 28.659374Q110.59688 26.940624 112.75313 26.940624Q113.69063 26.940624 114.47188 27.284374Q115.26875 27.6125 115.65938 28.159374Q116.05 28.70625 116.20625 29.45625Q116.3 29.95625 116.3 31.175L116.3 37.55L114.53438 37.55L114.53438 31.2375Q114.53438 30.159374 114.33125 29.628124Q114.12813 29.096874 113.59688 28.784374Q113.08125 28.471874 112.37813 28.471874Q111.25313 28.471874 110.44063 29.190624Q109.62813 29.89375 109.62813 31.878124L109.62813 37.55L107.8625 37.55ZM124.22188 32.3625Q124.22188 29.4875 125.81563 28.096874Q127.15938 26.940624 129.08125 26.940624Q131.22188 26.940624 132.56563 28.346874Q133.925 29.753124 133.925 32.221874Q133.925 34.221874 133.33125 35.378124Q132.7375 36.51875 131.58125 37.159374Q130.44063 37.784374 129.08125 37.784374Q126.89375 37.784374 125.55 36.39375Q124.22188 34.9875 124.22188 32.3625ZM126.01875 32.3625Q126.01875 34.3625 126.87813 35.346874Q127.75313 36.33125 129.08125 36.33125Q130.39375 36.33125 131.25313 35.346874Q132.12813 34.346874 132.12813 32.3Q132.12813 30.378124 131.25313 29.39375Q130.37813 28.39375 129.08125 28.39375Q127.75313 28.39375 126.87813 29.39375Q126.01875 30.378124 126.01875 32.3625ZM136.28438 37.55L136.28438 28.55L134.7375 28.55L134.7375 27.175L136.28438 27.175L136.28438 26.08125Q136.28438 25.034374 136.47188 24.51875Q136.72188 23.83125 137.3625 23.409374Q138.00313 22.9875 139.15938 22.9875Q139.90938 22.9875 140.8 23.159374L140.53438 24.690624Q139.9875 24.596874 139.50313 24.596874Q138.70625 24.596874 138.3625 24.940624Q138.03438 25.284374 138.03438 26.221874L138.03438 27.175L140.06563 27.175L140.06563 28.55L138.03438 28.55L138.03438 37.55L136.28438 37.55ZM148.08125 37.55L148.08125 23.2375L150.01875 23.2375L157.53438 34.471874L157.53438 23.2375L159.34688 23.2375L159.34688 37.55L157.40938 37.55L149.89375 26.3L149.89375 37.55L148.08125 37.55ZM168.65938 37.55L168.65938 36.01875Q167.45625 37.784374 165.37813 37.784374Q164.45625 37.784374 163.65938 37.440624Q162.8625 37.08125 162.47188 36.55Q162.09688 36.01875 161.94063 35.2375Q161.83125 34.721874 161.83125 33.596874L161.83125 27.175L163.58125 27.175L163.58125 32.925Q163.58125 34.3 163.69063 34.784374Q163.8625 35.471874 164.39375 35.878124Q164.94063 36.26875 165.72188 36.26875Q166.51875 36.26875 167.20625 35.8625Q167.90938 35.45625 168.19063 34.76875Q168.4875 34.065624 168.4875 32.7375L168.4875 27.175L170.2375 27.175L170.2375 37.55L168.65938 37.55ZM172.8625 37.55L172.8625 27.175L174.44063 27.175L174.44063 28.628124Q174.925 27.878124 175.7375 27.409374Q176.55 26.940624 177.58125 26.940624Q178.7375 26.940624 179.47188 27.425Q180.20625 27.89375 180.51875 28.753124Q181.75313 26.940624 183.72188 26.940624Q185.26875 26.940624 186.09688 27.8Q186.925 28.659374 186.925 30.425L186.925 37.55L185.175 37.55L185.175 31.01875Q185.175 29.95625 185.00313 29.503124Q184.83125 29.034374 184.37813 28.753124Q183.94063 28.471874 183.33125 28.471874Q182.2375 28.471874 181.50313 29.20625Q180.78438 29.925 180.78438 31.51875L180.78438 37.55L179.03438 37.55L179.03438 30.815624Q179.03438 29.64375 178.59688 29.065624Q178.175 28.471874 177.19063 28.471874Q176.45625 28.471874 175.81563 28.8625Q175.19063 29.253124 174.90938 30.003124Q174.62813 30.753124 174.62813 32.175L174.62813 37.55L172.8625 37.55ZM191.4875 37.55L189.8625 37.55L189.8625 23.2375L191.6125 23.2375L191.6125 28.346874Q192.7375 26.940624 194.45625 26.940624Q195.40938 26.940624 196.26875 27.33125Q197.12813 27.721874 197.675 28.425Q198.22188 29.1125 198.53438 30.096874Q198.84688 31.08125 198.84688 32.20625Q198.84688 34.878124 197.53438 36.33125Q196.22188 37.784374 194.37813 37.784374Q192.53438 37.784374 191.4875 36.253124L191.4875 37.55ZM191.47188 32.284374Q191.47188 34.14375 191.97188 34.9875Q192.81563 36.33125 194.22188 36.33125Q195.37813 36.33125 196.20625 35.33125Q197.05 34.33125 197.05 32.346874Q197.05 30.315624 196.2375 29.3625Q195.44063 28.39375 194.3 28.39375Q193.14375 28.39375 192.3 29.39375Q191.47188 30.39375 191.47188 32.284374ZM207.97188 34.20625L209.78438 34.440624Q209.3625 36.01875 208.19063 36.909374Q207.03438 37.784374 205.22188 37.784374Q202.95625 37.784374 201.6125 36.39375Q200.28438 34.9875 200.28438 32.45625Q200.28438 29.83125 201.62813 28.39375Q202.97188 26.940624 205.12813 26.940624Q207.20625 26.940624 208.51875 28.3625Q209.84688 29.76875 209.84688 32.346874Q209.84688 32.503124 209.83125 32.815624L202.09688 32.815624Q202.19063 34.51875 203.06563 35.425Q203.94063 36.33125 205.2375 36.33125Q206.20625 36.33125 206.87813 35.83125Q207.56563 35.315624 207.97188 34.20625ZM202.19063 31.3625L207.9875 31.3625Q207.87813 30.065624 207.33125 29.409374Q206.4875 28.39375 205.14375 28.39375Q203.94063 28.39375 203.1125 29.20625Q202.28438 30.003124 202.19063 31.3625ZM211.84688 37.55L211.84688 27.175L213.425 27.175L213.425 28.753124Q214.03438 27.64375 214.55 27.3Q215.06563 26.940624 215.675 26.940624Q216.56563 26.940624 217.4875 27.503124L216.87813 29.14375Q216.2375 28.753124 215.59688 28.753124Q215.01875 28.753124 214.55 29.1125Q214.09688 29.45625 213.89375 30.065624Q213.6125 31.003124 213.6125 32.1125L213.6125 37.55L211.84688 37.55ZM224.22188 32.3625Q224.22188 29.4875 225.81563 28.096874Q227.15938 26.940624 229.08125 26.940624Q231.22188 26.940624 232.56563 28.346874Q233.925 29.753124 233.925 32.221874Q233.925 34.221874 233.33125 35.378124Q232.7375 36.51875 231.58125 37.159374Q230.44063 37.784374 229.08125 37.784374Q226.89375 37.784374 225.55 36.39375Q224.22188 34.9875 224.22188 32.3625ZM226.01875 32.3625Q226.01875 34.3625 226.87813 35.346874Q227.75313 36.33125 229.08125 36.33125Q230.39375 36.33125 231.25313 35.346874Q232.12813 34.346874 232.12813 32.3Q232.12813 30.378124 231.25313 29.39375Q230.37813 28.39375 229.08125 28.39375Q227.75313 28.39375 226.87813 29.39375Q226.01875 30.378124 226.01875 32.3625ZM236.28438 37.55L236.28438 28.55L234.7375 28.55L234.7375 27.175L236.28438 27.175L236.28438 26.08125Q236.28438 25.034374 236.47188 24.51875Q236.72188 23.83125 237.3625 23.409374Q238.00313 22.9875 239.15938 22.9875Q239.90938 22.9875 240.8 23.159374L240.53438 24.690624Q239.9875 24.596874 239.50313 24.596874Q238.70625 24.596874 238.3625 24.940624Q238.03438 25.284374 238.03438 26.221874L238.03438 27.175L240.06563 27.175L240.06563 28.55L238.03438 28.55L238.03438 37.55L236.28438 37.55ZM248.03438 37.55L248.03438 23.2375L250.89375 23.2375L254.26875 33.3625Q254.7375 34.784374 254.95625 35.4875Q255.20625 34.70625 255.72188 33.190624L259.14374 23.2375L261.6906 23.2375L261.6906 37.55L259.8781 37.55L259.8781 25.565624L255.70625 37.55L254.00313 37.55L249.8625 25.3625L249.8625 37.55L248.03438 37.55ZM264.22186 32.3625Q264.22186 29.4875 265.8156 28.096874Q267.15936 26.940624 269.08124 26.940624Q271.22186 26.940624 272.5656 28.346874Q273.925 29.753124 273.925 32.221874Q273.925 34.221874 273.33124 35.378124Q272.7375 36.51875 271.58124 37.159374Q270.4406 37.784374 269.08124 37.784374Q266.89374 37.784374 265.55 36.39375Q264.22186 34.9875 264.22186 32.3625ZM266.01874 32.3625Q266.01874 34.3625 266.8781 35.346874Q267.7531 36.33125 269.08124 36.33125Q270.39374 36.33125 271.2531 35.346874Q272.1281 34.346874 272.1281 32.3Q272.1281 30.378124 271.2531 29.39375Q270.3781 28.39375 269.08124 28.39375Q267.7531 28.39375 266.8781 29.39375Q266.01874 30.378124 266.01874 32.3625ZM278.7531 37.55L274.8 27.175L276.65936 27.175L278.89374 33.39375Q279.2531 34.39375 279.55 35.471874Q279.78436 34.659374 280.20624 33.503124L282.5031 27.175L284.3156 27.175L280.39374 37.55L278.7531 37.55ZM292.97186 34.20625L294.78436 34.440624Q294.3625 36.01875 293.1906 36.909374Q292.03436 37.784374 290.22186 37.784374Q287.95624 37.784374 286.6125 36.39375Q285.28436 34.9875 285.28436 32.45625Q285.28436 29.83125 286.6281 28.39375Q287.97186 26.940624 290.1281 26.940624Q292.20624 26.940624 293.51874 28.3625Q294.84686 29.76875 294.84686 32.346874Q294.84686 32.503124 294.83124 32.815624L287.09686 32.815624Q287.1906 34.51875 288.0656 35.425Q288.9406 36.33125 290.2375 36.33125Q291.20624 36.33125 291.8781 35.83125Q292.5656 35.315624 292.97186 34.20625ZM287.1906 31.3625L292.9875 31.3625Q292.8781 30.065624 292.33124 29.409374Q291.4875 28.39375 290.14374 28.39375Q288.9406 28.39375 288.1125 29.20625Q287.28436 30.003124 287.1906 31.3625ZM296.15936 34.45625L297.90936 34.175Q298.05 35.221874 298.72186 35.784374Q299.39374 36.33125 300.59686 36.33125Q301.8 36.33125 302.3781 35.846874Q302.97186 35.346874 302.97186 34.690624Q302.97186 34.096874 302.45624 33.753124Q302.09686 33.51875 300.65936 33.159374Q298.72186 32.659374 297.97186 32.315624Q297.2375 31.95625 296.84686 31.33125Q296.45624 30.690624 296.45624 29.925Q296.45624 29.2375 296.76874 28.64375Q297.09686 28.05 297.64374 27.659374Q298.05 27.3625 298.7531 27.159374Q299.47186 26.940624 300.28436 26.940624Q301.5031 26.940624 302.425 27.3Q303.34686 27.64375 303.78436 28.253124Q304.22186 28.846874 304.39374 29.846874L302.675 30.08125Q302.55 29.284374 301.9875 28.846874Q301.425 28.39375 300.40936 28.39375Q299.1906 28.39375 298.675 28.8Q298.15936 29.190624 298.15936 29.721874Q298.15936 30.065624 298.3781 30.346874Q298.58124 30.628124 299.05 30.815624Q299.3156 30.909374 300.59686 31.253124Q302.47186 31.753124 303.20624 32.08125Q303.9406 32.39375 304.3625 33.003124Q304.78436 33.596874 304.78436 34.503124Q304.78436 35.378124 304.26874 36.159374Q303.7531 36.940624 302.78436 37.3625Q301.8156 37.784374 300.59686 37.784374Q298.58124 37.784374 297.51874 36.940624Q296.45624 36.096874 296.15936 34.45625ZM312.8625 41.51875L312.8625 27.175L314.47186 27.175L314.47186 28.51875Q315.03436 27.7375 315.7375 27.346874Q316.45624 26.940624 317.47186 26.940624Q318.8 26.940624 319.8156 27.628124Q320.83124 28.315624 321.34686 29.565624Q321.8781 30.8 321.8781 32.284374Q321.8781 33.878124 321.3 35.159374Q320.7375 36.425 319.64374 37.1125Q318.55 37.784374 317.34686 37.784374Q316.47186 37.784374 315.76874 37.409374Q315.08124 37.034374 314.6281 36.471874L314.6281 41.51875L312.8625 41.51875ZM314.45624 32.425Q314.45624 34.425 315.26874 35.378124Q316.08124 36.33125 317.2375 36.33125Q318.40936 36.33125 319.2375 35.346874Q320.08124 34.3625 320.08124 32.26875Q320.08124 30.3 319.2531 29.315624Q318.4406 28.315624 317.3156 28.315624Q316.1906 28.315624 315.3156 29.378124Q314.45624 30.425 314.45624 32.425ZM330.97186 34.20625L332.78436 34.440624Q332.3625 36.01875 331.1906 36.909374Q330.03436 37.784374 328.22186 37.784374Q325.95624 37.784374 324.6125 36.39375Q323.28436 34.9875 323.28436 32.45625Q323.28436 29.83125 324.6281 28.39375Q325.97186 26.940624 328.1281 26.940624Q330.20624 26.940624 331.51874 28.3625Q332.84686 29.76875 332.84686 32.346874Q332.84686 32.503124 332.83124 32.815624L325.09686 32.815624Q325.1906 34.51875 326.0656 35.425Q326.9406 36.33125 328.2375 36.33125Q329.20624 36.33125 329.8781 35.83125Q330.5656 35.315624 330.97186 34.20625ZM325.1906 31.3625L330.9875 31.3625Q330.8781 30.065624 330.33124 29.409374Q329.4875 28.39375 328.14374 28.39375Q326.9406 28.39375 326.1125 29.20625Q325.28436 30.003124 325.1906 31.3625ZM334.84686 37.55L334.84686 27.175L336.425 27.175L336.425 28.753124Q337.03436 27.64375 337.55 27.3Q338.0656 26.940624 338.675 26.940624Q339.5656 26.940624 340.4875 27.503124L339.8781 29.14375Q339.2375 28.753124 338.59686 28.753124Q338.01874 28.753124 337.55 29.1125Q337.09686 29.45625 336.89374 30.065624Q336.6125 31.003124 336.6125 32.1125L336.6125 37.55L334.84686 37.55ZM354.8 31.940624L354.8 30.253124L360.8625 30.2375L360.8625 35.55Q359.45624 36.675 357.97186 37.2375Q356.4875 37.8 354.925 37.8Q352.8156 37.8 351.09686 36.89375Q349.3781 35.9875 348.4875 34.284374Q347.6125 32.565624 347.6125 30.45625Q347.6125 28.3625 348.4875 26.565624Q349.3625 24.753124 351.0031 23.878124Q352.64374 22.9875 354.78436 22.9875Q356.33124 22.9875 357.58124 23.4875Q358.84686 23.9875 359.55 24.89375Q360.26874 25.784374 360.64374 27.2375L358.9406 27.70625Q358.6125 26.6125 358.1281 25.9875Q357.65936 25.3625 356.76874 24.9875Q355.8781 24.6125 354.8 24.6125Q353.4875 24.6125 352.53436 25.003124Q351.59686 25.39375 351.01874 26.05Q350.4406 26.690624 350.1125 27.45625Q349.5656 28.784374 349.5656 30.346874Q349.5656 32.253124 350.22186 33.55Q350.89374 34.83125 352.14374 35.45625Q353.40936 36.08125 354.8156 36.08125Q356.05 36.08125 357.22186 35.6125Q358.39374 35.14375 359.0031 34.596874L359.0031 31.940624L354.8 31.940624ZM370.64374 36.26875Q369.65936 37.096874 368.7531 37.440624Q367.84686 37.784374 366.8156 37.784374Q365.1125 37.784374 364.1906 36.95625Q363.26874 36.1125 363.26874 34.815624Q363.26874 34.05 363.6125 33.425Q363.97186 32.8 364.53436 32.425Q365.09686 32.034374 365.8 31.83125Q366.3156 31.70625 367.3625 31.565624Q369.4875 31.315624 370.4875 30.971874Q370.5031 30.6125 370.5031 30.503124Q370.5031 29.440624 370.0031 28.9875Q369.33124 28.39375 368.0031 28.39375Q366.7531 28.39375 366.15936 28.83125Q365.58124 29.26875 365.3 30.378124L363.58124 30.14375Q363.8156 29.034374 364.34686 28.3625Q364.8781 27.675 365.89374 27.315624Q366.90936 26.940624 368.2531 26.940624Q369.58124 26.940624 370.40936 27.253124Q371.2375 27.565624 371.6281 28.05Q372.01874 28.51875 372.175 29.2375Q372.26874 29.690624 372.26874 30.8625L372.26874 33.20625Q372.26874 35.659374 372.3781 36.315624Q372.4875 36.95625 372.83124 37.55L370.9875 37.55Q370.72186 37.003124 370.64374 36.26875ZM370.4875 32.346874Q369.53436 32.7375 367.6125 33.003124Q366.53436 33.159374 366.08124 33.3625Q365.64374 33.55 365.39374 33.925Q365.14374 34.3 365.14374 34.76875Q365.14374 35.471874 365.675 35.940624Q366.20624 36.409374 367.2375 36.409374Q368.2531 36.409374 369.03436 35.971874Q369.83124 35.51875 370.20624 34.753124Q370.4875 34.14375 370.4875 32.9875L370.4875 32.346874ZM374.8625 37.55L374.8625 27.175L376.4406 27.175L376.4406 28.628124Q376.925 27.878124 377.7375 27.409374Q378.55 26.940624 379.58124 26.940624Q380.7375 26.940624 381.47186 27.425Q382.20624 27.89375 382.51874 28.753124Q383.7531 26.940624 385.72186 26.940624Q387.26874 26.940624 388.09686 27.8Q388.925 28.659374 388.925 30.425L388.925 37.55L387.175 37.55L387.175 31.01875Q387.175 29.95625 387.0031 29.503124Q386.83124 29.034374 386.3781 28.753124Q385.9406 28.471874 385.33124 28.471874Q384.2375 28.471874 383.5031 29.20625Q382.78436 29.925 382.78436 31.51875L382.78436 37.55L381.03436 37.55L381.03436 30.815624Q381.03436 29.64375 380.59686 29.065624Q380.175 28.471874 379.1906 28.471874Q378.45624 28.471874 377.8156 28.8625Q377.1906 29.253124 376.90936 30.003124Q376.6281 30.753124 376.6281 32.175L376.6281 37.55L374.8625 37.55ZM398.97186 34.20625L400.78436 34.440624Q400.3625 36.01875 399.1906 36.909374Q398.03436 37.784374 396.22186 37.784374Q393.95624 37.784374 392.6125 36.39375Q391.28436 34.9875 391.28436 32.45625Q391.28436 29.83125 392.6281 28.39375Q393.97186 26.940624 396.1281 26.940624Q398.20624 26.940624 399.51874 28.3625Q400.84686 29.76875 400.84686 32.346874Q400.84686 32.503124 400.83124 32.815624L393.09686 32.815624Q393.1906 34.51875 394.0656 35.425Q394.9406 36.33125 396.2375 36.33125Q397.20624 36.33125 397.8781 35.83125Q398.5656 35.315624 398.97186 34.20625ZM393.1906 31.3625L398.9875 31.3625Q398.8781 30.065624 398.33124 29.409374Q397.4875 28.39375 396.14374 28.39375Q394.9406 28.39375 394.1125 29.20625Q393.28436 30.003124 393.1906 31.3625Z" fill-rule="nonzero"/></svg>